<?xml version="1.0" encoding="UTF-8" standalone="no"?>
<!-- Created with Inkscape (http://www.inkscape.org/) -->

<svg version="1.1" id="svg2" width="4533.3335" height="2666.6667" viewBox="0 0 4533.3335 2666.6667"
   sodipodi:docname="24644909_Tiny business people with invoice payment report and laptop.eps"
   xmlns:inkscape="http://www.inkscape.org/namespaces/inkscape"
   xmlns:sodipodi="http://sodipodi.sourceforge.net/DTD/sodipodi-0.dtd" xmlns="http://www.w3.org/2000/svg"
   xmlns:svg="http://www.w3.org/2000/svg">
   <defs id="defs6" />
   <sodipodi:namedview id="namedview4" pagecolor="#FFF" bordercolor="#000000" borderopacity="0.25"
      inkscape:showpageshadow="2" inkscape:pageopacity="0.0" inkscape:pagecheckerboard="0"
      inkscape:deskcolor="#d1d1d1" />
   <g id="g8" inkscape:groupmode="layer" inkscape:label="ink_ext_XXXXXX"
      transform="matrix(1.3333333,0,0,-1.3333333,0,2666.6667)">
      <g id="g10" transform="scale(0.1)">
         <path d="M 34000,0 H 0 V 20000 H 34000 V 0" style="fill:none;fill-opacity:1;fill-rule:nonzero;stroke:none"
            id="path12" />
         <path
            d="m 4444.32,1212.5 c 0,0 -4175.285,3699.1 -1325.05,6542 2740.69,2733.7 1690.6,4242.3 1234.45,6463.5 -656.86,3198.5 1077.92,5648.6 4860.26,3198.5 3363.32,-2178.7 4182.62,-2186.7 6521.72,-1758.9 2339.2,427.8 3435.9,3384.1 6466.5,3131.3 3468.4,-289.4 2086.9,-5680.8 5911.7,-6485.6 4733.9,-996.1 4688.6,-5290.3 1599.2,-11056.5 L 4444.32,1212.5"
            style="fill:#a2c3f2;fill-opacity:1;fill-rule:nonzero;stroke:none" id="path14" />
         <path
            d="m 3820.71,1210.1 c 0,0 -1887.7,2798.4 -1267.35,3271.3 620.35,472.8 2588.19,-2062.1 2588.19,-2062.1 0,0 -1158.36,2558.9 -915.77,4016.9 242.59,1458 2117.48,-1959.1 2569.08,-3635.5 0,0 -113.93,2361.8 964.51,3323.1 1078.44,961.2 682.85,-3862.6 682.85,-3862.6 0,0 677.23,2776.8 1413,2910.3 735.78,133.4 -220.61,-3939.6 -220.61,-3939.6 l -5813.9,-21.8"
            style="fill:#60bf60;fill-opacity:1;fill-rule:nonzero;stroke:none" id="path16" />
         <path
            d="m 4839.84,1195.8 c -3.57,0 -7.09,1.7 -9.29,4.9 l -1877.7,2698.8 c -3.57,5.1 -2.31,12.2 2.82,15.7 5.12,3.6 12.17,2.4 15.75,-2.8 L 4849.11,1213.6 c 3.57,-5.1 2.31,-12.2 -2.82,-15.7 -1.97,-1.4 -4.22,-2.1 -6.45,-2.1"
            style="fill:#339e33;fill-opacity:1;fill-rule:nonzero;stroke:none" id="path18" />
         <path
            d="m 6423.68,1208.6 c -4.62,0 -8.96,2.8 -10.63,7.4 l -1807.2,4963.3 c -2.14,5.8 0.89,12.3 6.76,14.5 5.86,2.1 12.35,-0.9 14.49,-6.8 L 6434.3,1223.7 c 2.14,-5.8 -0.89,-12.3 -6.75,-14.4 -1.28,-0.5 -2.59,-0.7 -3.87,-0.7"
            style="fill:#339e33;fill-opacity:1;fill-rule:nonzero;stroke:none" id="path20" />
         <path
            d="m 7311.28,1211.9 c -0.27,0 -0.54,0 -0.81,0 -6.23,0.5 -10.93,5.9 -10.49,12.1 127.15,1803.7 647.11,4294.6 652.34,4319.6 1.29,6.1 7.31,9.9 13.4,8.7 6.11,-1.3 10.02,-7.2 8.74,-13.4 -5.23,-24.9 -524.88,-2514.4 -651.92,-4316.5 -0.41,-5.9 -5.38,-10.5 -11.26,-10.5"
            style="fill:#339e33;fill-opacity:1;fill-rule:nonzero;stroke:none" id="path22" />
         <path
            d="m 8801,1211.9 c -0.77,0 -1.56,0.1 -2.34,0.2 -6.11,1.3 -10.02,7.3 -8.74,13.4 170.26,808.5 910.54,3397.4 918,3423.4 1.72,6 7.95,9.5 13.98,7.8 6.01,-1.7 9.48,-8 7.76,-14 -7.45,-26.1 -747.51,-2614.2 -917.6,-3421.8 -1.12,-5.3 -5.83,-9 -11.06,-9"
            style="fill:#5aa85a;fill-opacity:1;fill-rule:nonzero;stroke:none" id="path24" />
         <path
            d="m 30187.1,1210.1 c 0,0 1887.7,2798.4 1267.4,3271.3 -620.4,472.8 -2588.2,-2062.1 -2588.2,-2062.1 0,0 1158.4,2558.9 915.8,4016.9 -242.6,1458 -2117.5,-1959.1 -2569.1,-3635.5 0,0 113.9,2361.8 -964.5,3323.1 -1078.5,961.2 -682.9,-3862.6 -682.9,-3862.6 0,0 -677.2,2776.8 -1413,2910.3 -735.7,133.4 220.6,-3939.6 220.6,-3939.6 l 5813.9,-21.8"
            style="fill:#60bf60;fill-opacity:1;fill-rule:nonzero;stroke:none" id="path26" />
         <path
            d="m 29168,1195.8 c -2.2,0 -4.5,0.7 -6.4,2.1 -5.2,3.5 -6.4,10.6 -2.9,15.7 l 1877.7,2698.8 c 3.6,5.2 10.7,6.4 15.8,2.8 5.1,-3.5 6.4,-10.6 2.8,-15.7 L 29177.3,1200.7 c -2.2,-3.2 -5.7,-4.9 -9.3,-4.9"
            style="fill:#339e33;fill-opacity:1;fill-rule:nonzero;stroke:none" id="path28" />
         <path
            d="m 27584.2,1208.6 c -1.3,0 -2.6,0.2 -3.9,0.7 -5.9,2.1 -8.9,8.6 -6.8,14.5 L 29380.7,6187 c 2.2,5.9 8.7,8.9 14.6,6.8 5.8,-2.2 8.8,-8.7 6.7,-14.5 L 27594.8,1216 c -1.7,-4.6 -6,-7.4 -10.6,-7.4"
            style="fill:#339e33;fill-opacity:1;fill-rule:nonzero;stroke:none" id="path30" />
         <path
            d="m 26696.6,1211.9 c -5.9,0 -10.9,4.6 -11.3,10.5 -127,1802.1 -646.7,4291.6 -651.9,4316.5 -1.3,6.2 2.6,12.1 8.7,13.4 6.2,1.3 12.1,-2.6 13.4,-8.7 5.3,-25 525.2,-2515.9 652.4,-4319.6 0.4,-6.2 -4.3,-11.6 -10.5,-12.1 -0.3,0 -0.6,0 -0.8,0"
            style="fill:#339e33;fill-opacity:1;fill-rule:nonzero;stroke:none" id="path32" />
         <path
            d="m 25206.9,1211.9 c -5.3,0 -10,3.7 -11.1,9 -170.1,807.6 -910.2,3395.7 -917.6,3421.8 -1.7,6 1.7,12.3 7.7,14 6,1.7 12.3,-1.8 14,-7.8 7.5,-26 747.8,-2614.9 918,-3423.4 1.3,-6.1 -2.6,-12.1 -8.7,-13.4 -0.8,-0.1 -1.6,-0.2 -2.3,-0.2"
            style="fill:#5aa85a;fill-opacity:1;fill-rule:nonzero;stroke:none" id="path34" />
         <path
            d="m 8312.44,1232.1 v 11823.3 c 0,406.3 329.43,735.8 735.8,735.8 H 24951.8 c 406.3,0 735.8,-329.5 735.8,-735.8 V 1232.1 H 8312.44"
            style="fill:#333647;fill-opacity:1;fill-rule:nonzero;stroke:none" id="path36" />
         <path d="M 24769.6,2150.1 H 9230.44 V 12873.2 H 24769.6 V 2150.1"
            style="fill:#bbd8fc;fill-opacity:1;fill-rule:nonzero;stroke:none" id="path38" />
         <path
            d="M 28190.1,1232.1 H 5809.9 c -253.49,0 -458.99,205.5 -458.99,459 v 0 c 0,253.5 205.5,459 458.99,459 h 22380.2 c 253.5,0 459,-205.5 459,-459 v 0 c 0,-253.5 -205.5,-459 -459,-459"
            style="fill:#333647;fill-opacity:1;fill-rule:nonzero;stroke:none" id="path40" />
         <path d="m 21290.2,3123.1 h -9736.8 v 13282.7 h 9736.8 V 3123.1"
            style="fill:#99a7d8;fill-opacity:1;fill-rule:nonzero;stroke:none" id="path42" />
         <path d="m 20902.7,2735.5 h -9736.8 v 13282.8 h 9736.8 V 2735.5"
            style="fill:#f1f3f2;fill-opacity:1;fill-rule:nonzero;stroke:none" id="path44" />
         <path
            d="m 16813.4,5345.5 c -489.2,0 -887.2,-398 -887.2,-887.3 0,-489.2 398,-887.2 887.2,-887.2 489.2,0 887.3,398 887.3,887.2 0,489.3 -398.1,887.3 -887.3,887.3 z m 0,-1864.1 c -538.6,0 -976.9,438.2 -976.9,976.8 0,538.7 438.3,976.9 976.9,976.9 538.7,0 976.9,-438.2 976.9,-976.9 0,-538.6 -438.2,-976.8 -976.9,-976.8"
            style="fill:#3e8edd;fill-opacity:1;fill-rule:nonzero;stroke:none" id="path46" />
         <path d="m 19965.8,6269.1 h -7851.9 v 5859.5 h 7851.9 V 6269.1"
            style="fill:#3e8edd;fill-opacity:1;fill-rule:nonzero;stroke:none" id="path48" />
         <path
            d="m 19965.8,11268.1 h -7851.9 c -22.2,0 -40.1,18 -40.1,40.2 0,22.2 17.9,40.2 40.1,40.2 h 7851.9 c 22.1,0 40.1,-18 40.1,-40.2 0,-22.2 -18,-40.2 -40.1,-40.2"
            style="fill:#305777;fill-opacity:1;fill-rule:nonzero;stroke:none" id="path50" />
         <path
            d="m 19965.8,10602.6 h -7851.9 c -9.5,0 -17.2,7.7 -17.2,17.2 0,9.5 7.7,17.2 17.2,17.2 h 7851.9 c 9.5,0 17.2,-7.7 17.2,-17.2 0,-9.5 -7.7,-17.2 -17.2,-17.2"
            style="fill:#305777;fill-opacity:1;fill-rule:nonzero;stroke:none" id="path52" />
         <path
            d="m 19965.8,9870.1 h -7851.9 c -9.5,0 -17.2,7.8 -17.2,17.3 0,9.5 7.7,17.2 17.2,17.2 h 7851.9 c 9.5,0 17.2,-7.7 17.2,-17.2 0,-9.5 -7.7,-17.3 -17.2,-17.3"
            style="fill:#305777;fill-opacity:1;fill-rule:nonzero;stroke:none" id="path54" />
         <path
            d="m 19965.8,6940.3 h -7851.9 c -9.5,0 -17.2,7.8 -17.2,17.3 0,9.5 7.7,17.2 17.2,17.2 h 7851.9 c 9.5,0 17.2,-7.7 17.2,-17.2 0,-9.5 -7.7,-17.3 -17.2,-17.3"
            style="fill:#305777;fill-opacity:1;fill-rule:nonzero;stroke:none" id="path56" />
         <path
            d="m 19965.8,7672.8 h -7851.9 c -9.5,0 -17.2,7.7 -17.2,17.2 0,9.5 7.7,17.2 17.2,17.2 h 7851.9 c 9.5,0 17.2,-7.7 17.2,-17.2 0,-9.5 -7.7,-17.2 -17.2,-17.2"
            style="fill:#305777;fill-opacity:1;fill-rule:nonzero;stroke:none" id="path58" />
         <path
            d="m 19965.8,8405.2 h -7851.9 c -9.5,0 -17.2,7.8 -17.2,17.3 0,9.5 7.7,17.2 17.2,17.2 h 7851.9 c 9.5,0 17.2,-7.7 17.2,-17.2 0,-9.5 -7.7,-17.3 -17.2,-17.3"
            style="fill:#305777;fill-opacity:1;fill-rule:nonzero;stroke:none" id="path60" />
         <path
            d="m 19965.8,9137.7 h -7851.9 c -9.5,0 -17.2,7.7 -17.2,17.2 0,9.5 7.7,17.2 17.2,17.2 h 7851.9 c 9.5,0 17.2,-7.7 17.2,-17.2 0,-9.5 -7.7,-17.2 -17.2,-17.2"
            style="fill:#305777;fill-opacity:1;fill-rule:nonzero;stroke:none" id="path62" />
         <path
            d="m 18221,6228.9 c -22.2,0 -40.2,18 -40.2,40.2 v 5859.5 c 0,22.2 18,40.2 40.2,40.2 22.2,0 40.2,-18 40.2,-40.2 V 6269.1 c 0,-22.2 -18,-40.2 -40.2,-40.2"
            style="fill:#305777;fill-opacity:1;fill-rule:nonzero;stroke:none" id="path64" />
         <path
            d="m 13270,14209.8 h -215.6 c -15.9,0 -28.7,-12.8 -28.7,-28.7 v -1068.2 c 0,-15.8 12.8,-28.7 28.7,-28.7 h 215.6 c 15.9,0 28.7,12.9 28.7,28.7 v 1068.2 c 0,15.9 -12.8,28.7 -28.7,28.7"
            style="fill:#ff593a;fill-opacity:1;fill-rule:nonzero;stroke:none" id="path66" />
         <path
            d="m 14325.2,14209.8 h -200.4 c -15.9,0 -28.7,-12.8 -28.7,-28.7 v -611.6 l -384.1,626.6 c -5.2,8.5 -14.4,13.7 -24.4,13.7 h -209.9 c -15.8,0 -28.7,-12.8 -28.7,-28.7 v -1068.2 c 0,-15.8 12.9,-28.7 28.7,-28.7 h 200.4 c 15.9,0 28.7,12.9 28.7,28.7 v 595.7 l 377.6,-610.8 c 5.2,-8.4 14.4,-13.6 24.4,-13.6 h 216.4 c 15.8,0 28.7,12.9 28.7,28.7 v 1068.2 c 0,15.9 -12.9,28.7 -28.7,28.7"
            style="fill:#ff593a;fill-opacity:1;fill-rule:nonzero;stroke:none" id="path68" />
         <path
            d="m 15438.6,14209.8 h -228.8 c -12.4,0 -23.3,-7.9 -27.2,-19.6 l -234.8,-709.7 -242.8,709.9 c -4,11.6 -14.9,19.4 -27.1,19.4 H 14444 c -9.4,0 -18.1,-4.5 -23.5,-12.1 -5.4,-7.7 -6.7,-17.4 -3.6,-26.2 l 381.9,-1068.3 c 4.1,-11.4 14.9,-19 27,-19 h 230.2 c 12.2,0 23,7.6 27.1,19 l 382.5,1068.3 c 3.2,8.8 1.8,18.5 -3.5,26.2 -5.4,7.6 -14.2,12.1 -23.5,12.1"
            style="fill:#ff593a;fill-opacity:1;fill-rule:nonzero;stroke:none" id="path70" />
         <path
            d="m 16289.4,13650.7 c 0,-116.1 -25.3,-203.4 -75.4,-259.7 -49.9,-56 -112.1,-83.3 -190.3,-83.3 -78.1,0 -140.7,27.5 -191.4,84.1 -50.7,56.7 -76.5,142.8 -76.5,256 0,115 25.1,201.4 74.4,256.6 49.1,55.1 112.4,81.9 193.5,81.9 81.1,0 144.1,-26.4 192.5,-80.7 48.6,-54.6 73.2,-140.3 73.2,-254.9 z m -267.8,577.4 c -90.5,0 -171.7,-15 -241.4,-44.5 -53.4,-22.3 -103,-56.9 -147.6,-102.7 -44.2,-45.5 -79.5,-97.5 -105.1,-154.9 -34,-77.1 -51.3,-173.2 -51.3,-285.5 0,-177 50.1,-318.4 148.7,-420.4 99,-102.3 233.4,-154.1 399.6,-154.1 164.2,0 297.7,52.1 396.6,154.9 98.7,102.5 148.7,245.3 148.7,424.7 0,180.8 -50.4,324.5 -149.8,427.2 -99.7,103 -233.7,155.3 -398.4,155.3"
            style="fill:#ff593a;fill-opacity:1;fill-rule:nonzero;stroke:none" id="path72" />
         <path
            d="m 16918.6,14209.8 h -215.7 c -15.9,0 -28.7,-12.8 -28.7,-28.7 v -1068.2 c 0,-15.8 12.8,-28.7 28.7,-28.7 h 215.7 c 15.8,0 28.6,12.9 28.6,28.7 v 1068.2 c 0,15.9 -12.8,28.7 -28.6,28.7"
            style="fill:#ff593a;fill-opacity:1;fill-rule:nonzero;stroke:none" id="path74" />
         <path
            d="m 18025.3,13466.7 -209.1,66.3 c -7.6,2.4 -15.9,1.6 -22.9,-2.4 -6.9,-4 -11.9,-10.7 -13.7,-18.5 -16.5,-71.9 -43.4,-124.7 -79.9,-156.9 -36.2,-31.9 -78.4,-47.5 -129,-47.5 -69.5,0 -124.3,24.8 -167.5,75.9 -43.9,51.7 -66.1,142.5 -66.1,270 0,119.6 22.5,206.2 66.9,257.3 44,50.8 100,75.4 171.1,75.4 51.1,0 93,-13.7 128.2,-41.8 35.2,-28.1 57.7,-65.8 69,-115.1 1.7,-7.5 6.3,-14 12.8,-18 6.5,-4.1 14.4,-5.3 21.8,-3.5 l 213.5,51 c 7.6,1.8 14.2,6.6 18.1,13.4 4,6.7 5,14.8 2.9,22.3 -25.7,90.2 -65.1,160.7 -117.2,209.7 -86.8,82.1 -200.5,123.8 -338.2,123.8 -157.2,0 -286.1,-52.8 -383.1,-156.7 -96.5,-103.4 -145.4,-249.4 -145.4,-433.8 0,-174.9 48.7,-315.3 144.8,-417.2 96.5,-102.5 221.2,-154.4 370.6,-154.4 120.5,0 221.9,30.5 301.2,90.7 79.3,60.2 136.6,152.8 170.2,275 4.1,14.9 -4.3,30.3 -19,35"
            style="fill:#ff593a;fill-opacity:1;fill-rule:nonzero;stroke:none" id="path76" />
         <path
            d="m 19014.2,13321.6 h -568.1 v 233.3 h 507.7 c 15.8,0 28.6,12.9 28.6,28.7 v 180 c 0,15.9 -12.8,28.7 -28.6,28.7 h -507.7 v 179.4 h 547.7 c 15.9,0 28.7,12.9 28.7,28.7 v 180.7 c 0,15.9 -12.8,28.7 -28.7,28.7 h -792 c -15.9,0 -28.7,-12.8 -28.7,-28.7 v -1068.2 c 0,-15.8 12.8,-28.7 28.7,-28.7 h 812.4 c 15.9,0 28.7,12.9 28.7,28.7 v 180 c 0,15.8 -12.8,28.7 -28.7,28.7"
            style="fill:#ff593a;fill-opacity:1;fill-rule:nonzero;stroke:none" id="path78" />
         <path
            d="m 16813.4,4951.3 c -271.9,0 -493.1,-221.2 -493.1,-493.1 0,-271.8 221.2,-493 493.1,-493 271.9,0 493.1,221.2 493.1,493 0,271.9 -221.2,493.1 -493.1,493.1 z m 0,-1076.1 c -321.5,0 -583.1,261.5 -583.1,583 0,321.5 261.6,583.1 583.1,583.1 321.5,0 583.1,-261.6 583.1,-583.1 0,-321.5 -261.6,-583 -583.1,-583"
            style="fill:#3e8edd;fill-opacity:1;fill-rule:nonzero;stroke:none" id="path80" />
         <path
            d="m 18794.5,5221.1 c -5,0 -8.9,-1.2 -11.3,-1.9 -52.2,-14.9 -108.2,-114 -105.1,-224.3 1.4,-51.8 16.8,-128 83,-192.1 107.4,129.1 141.2,280.2 84.1,377.5 -20.1,34.3 -38.6,40.8 -50.7,40.8 z m -1797.8,304 c -7.2,0 -15.7,-4.3 -25.5,-12.8 -77.9,-67.9 -150.1,-328 -90.7,-597.2 13,-59 29.5,-110.8 48.3,-156.3 95.3,173.8 172.2,386 142.4,589.2 -22.1,151.6 -61.3,173.3 -68.9,176.1 -1.7,0.7 -3.6,1 -5.6,1 z m 1123.9,-431.7 c -14.9,0 -22.8,-6.3 -26.2,-9 -28.1,-22 -40.3,-80.9 -30.5,-146.6 12.8,-85.5 64,-190.4 168.6,-258.4 5.9,14 10.5,27.6 14,40 44.5,158.4 -15.9,334.4 -96.6,367.4 -11.9,4.9 -21.6,6.6 -29.3,6.6 z m -633.2,-69 c -10.5,0 -15.9,-4.4 -19.5,-8.6 -18.6,-21.7 -22.8,-83.5 5,-159.5 22.6,-61.5 64.6,-128 127.4,-185.5 10.2,61 10.1,126.2 0.1,184.7 -15.9,94 -55.5,158.3 -103.4,167.9 -3.6,0.7 -6.8,1 -9.6,1 z m -804,-701.9 c -8.5,0 -17.1,3.1 -23.8,9.5 -13.7,13.1 -14.2,34.9 -1.1,48.7 2.4,2.4 118.4,125.7 227.8,304.8 -29.1,59.7 -54.5,130.7 -73,214.8 -62.7,283.8 7.7,572.4 112.7,663.9 43.1,37.6 81.3,31.5 100.2,24.5 55.7,-20.6 93.8,-98.2 113.2,-230.7 35.2,-240.4 -62.3,-485.8 -173.5,-676.2 76,-136.5 172.4,-198.1 234.9,-225.3 99.2,-43.1 205.9,-40.8 285.4,6.2 43.9,25.9 75.6,74.7 95.6,133.3 -87.3,70.7 -144.4,157.2 -173.5,236.6 -34.8,94.8 -32,182.1 7.3,228 23.2,27.1 57,37.8 94.9,30.3 78.8,-15.8 136.4,-97.4 157.8,-223.9 13,-76.3 11.1,-163.9 -7.7,-243.8 65.1,-44.3 146.1,-78.9 244.1,-94.6 157.6,-25.3 245,27.1 293.4,91 -125.6,80.1 -186.9,205.7 -202.3,308 -13.8,92.2 7.7,173 56,211 33.9,26.6 78,30.8 124.2,11.9 121.3,-49.6 187.8,-268.2 136.8,-449.7 -4.3,-15.2 -10.6,-33.8 -19.5,-53.9 4.8,-2 9.7,-4 14.7,-5.9 152,-58.6 304.6,16.1 406,111.7 -87.5,84.5 -103.2,186.5 -104.8,240.3 -3.8,135.6 65.8,266.8 155,292.4 25.5,7.3 90.3,15.1 140.4,-70.2 72.6,-123.8 37.6,-301.3 -88.9,-454.5 37.7,-23.2 85.5,-43 145.9,-56.7 91.5,-20.8 173.6,-5.7 251.1,46.2 269.2,180.4 365.6,735.8 366.6,741.4 3.1,18.7 20.8,31.3 39.6,28.2 18.8,-3.2 31.4,-20.9 28.2,-39.7 -4,-24 -102.1,-590.1 -396,-787 -92.8,-62.2 -195.3,-81.1 -304.7,-56.3 -74.6,16.9 -132.7,42.5 -178.2,72.5 -117,-113.5 -299.4,-204.1 -485,-132.6 -8.1,3.2 -16.1,6.5 -23.9,10 -56.9,-81.4 -164.6,-158.4 -365.5,-126.1 -100.2,16.1 -184.7,50.1 -254.3,94.1 -25.5,-64.8 -64.4,-119.5 -118.2,-151.3 -98.5,-58.2 -228.5,-61.9 -348,-10 -66.1,28.7 -165.7,91 -248.1,222 -104.1,-162.8 -207.6,-272.5 -216.9,-282.3 -6.8,-7 -15.8,-10.6 -24.9,-10.6"
            style="fill:#ff593a;fill-opacity:1;fill-rule:nonzero;stroke:none" id="path82" />
         <path
            d="m 8438.43,16118.2 c -31.9,0 -63.15,-2.7 -93.63,-7.7 2.91,23.4 4.59,47.1 4.59,71.3 0,316.1 -256.29,572.4 -572.42,572.4 -199.3,0 -374.73,-101.9 -477.24,-256.4 -41.93,274.9 -279.29,485.4 -565.84,485.4 -316.13,0 -572.41,-256.3 -572.41,-572.4 0,-57.8 8.63,-113.5 24.53,-166 -8.14,0.3 -16.31,0.6 -24.53,0.6 -316.14,0 -572.42,-256.3 -572.42,-572.4 0,-316.1 256.28,-572.4 572.42,-572.4 123.42,0 237.63,39.2 331.12,105.6 126.9,-265.6 397.97,-449.1 711.95,-449.1 335.89,0 622.54,210.1 736.24,505.9 98.49,-172.9 284.38,-289.6 497.64,-289.6 316.14,0 572.42,256.3 572.42,572.4 0,316.1 -256.28,572.4 -572.42,572.4"
            style="fill:#fdfffe;fill-opacity:1;fill-rule:nonzero;stroke:none" id="path84" />
         <path
            d="m 28027.1,15257.4 c 30.3,-1.1 59.8,-4.8 88.6,-10.7 -1.9,22.4 -2.7,45 -1.8,67.9 11.2,300.1 263.6,534.3 563.7,523 189.1,-7.1 352,-110 443.8,-260.3 49.6,259.4 282.4,450.8 554.4,440.6 300.1,-11.3 534.2,-263.6 523,-563.7 -2.1,-54.8 -12.2,-107.4 -29.2,-156.7 7.7,0 15.5,0 23.3,-0.3 300.1,-11.2 534.2,-263.6 523,-563.7 -11.2,-300.1 -263.6,-534.2 -563.7,-523 -117.2,4.4 -224.2,45.7 -310.5,112.1 -129.9,-247.6 -393.8,-412.2 -691.8,-401 -318.8,12 -583.5,221.5 -680.9,506.4 -99.6,-160.7 -280.2,-264.8 -482.6,-257.3 -300.1,11.3 -534.2,263.7 -523,563.7 11.2,300.1 263.6,534.3 563.7,523"
            style="fill:#a2c3f2;fill-opacity:1;fill-rule:nonzero;stroke:none" id="path86" />
         <path
            d="m 26135.7,11921.9 c 20.7,3 46.3,15.3 66.4,24.2 119.4,52.5 179.9,166.8 127.4,286.2 l -890.1,2025.2 c -39,88.8 -128.2,144.7 -225,141.1 l -1589.2,-59.3 c -130.4,-4.8 -232.1,-114.4 -227.2,-244.8 4.8,-130.4 114.4,-232.1 244.8,-227.3 l 1428.7,53.2 825.5,-1878.2 c 43.6,-99.3 136.3,-135 238.7,-120.3"
            style="fill:#f69d85;fill-opacity:1;fill-rule:nonzero;stroke:none" id="path88" />
         <path
            d="m 22993.4,14798.1 c 0,0 95.3,-925.9 559.4,-1102.7 464.1,-176.8 1392,78.2 1392,78.2 l 657.6,-1465.1 c 0,0 460.2,63.7 683.8,254.2 -76.5,301 -395.4,1568.3 -791.4,1871.7 -296.8,227.4 -906.4,223.5 -1424.8,289.1 -346.1,43.8 -1076.6,74.6 -1076.6,74.6"
            style="fill:#3e8edd;fill-opacity:1;fill-rule:nonzero;stroke:none" id="path90" />
         <path
            d="m 26517.7,12276.2 33,-114.8 c 2.8,-10 7.1,-19.3 12.7,-27.6 0,0 0,0 0,0 5.9,-8.9 13,-16.6 21.3,-23.1 l 153.1,86.8 c -45,119.1 -188.3,87.4 -220.1,78.7"
            style="fill:#404660;fill-opacity:1;fill-rule:nonzero;stroke:none" id="path92" />
         <path
            d="m 25906.6,11906.5 c 7.2,-10.8 16.1,-19.9 26.3,-27.2 25.2,-18 57.9,-24.3 89.1,-13.7 l 712.1,241.7 c 35.5,12 55.4,41.6 59.6,73.5 1.3,9.7 1.1,19.7 -0.5,29.5 -5,29.3 -23.4,56.6 -55.4,70.5 l -128.7,55.7 -138.5,59.8 c -312.3,-162.2 -657.5,-181.4 -657.5,-181.4 l 45.3,-158 34.7,-121 c 3.1,-10.8 7.6,-20.6 13.5,-29.4"
            style="fill:#404d7f;fill-opacity:1;fill-rule:nonzero;stroke:none" id="path94" />
         <path
            d="m 26548,12362.9 c 0,0 -195.6,85.7 -251.1,103.2 -55.4,17.5 -152.5,-61.3 -124.9,-102.4 27.7,-41.2 128.9,-86.8 128.9,-86.8 l 247.1,86"
            style="fill:#404d7f;fill-opacity:1;fill-rule:nonzero;stroke:none" id="path96" />
         <path
            d="m 26736.2,12101.2 -712.1,-241.8 c -45.3,-15.3 -95.8,2.6 -122.9,43.5 -1.1,1.7 -1.3,3.8 -0.7,5.7 0.6,1.8 2.1,3.3 4,4 v 0 l 886.6,303.8 c 1.7,0.6 3.7,0.4 5.4,-0.6 1.6,-0.9 2.7,-2.6 3,-4.4 6.9,-40.3 -9.9,-91.8 -63,-110.1 -0.1,0 -0.2,-0.1 -0.3,-0.1"
            style="fill:#606a97;fill-opacity:1;fill-rule:nonzero;stroke:none" id="path98" />
         <path d="m 26608.9,12337.6 c 0,0 177.8,-35 190.5,-125.1 l -274.3,-91 c 0,0 -27.1,131.3 83.8,216.1"
            style="fill:#606a97;fill-opacity:1;fill-rule:nonzero;stroke:none" id="path100" />
         <path d="m 25858.4,12056.9 c 0,0 156.4,57.1 240.4,-77.7 l -197.6,-76.3 c 0,0 -30.9,68.2 -42.8,154"
            style="fill:#606a97;fill-opacity:1;fill-rule:nonzero;stroke:none" id="path102" />
         <path
            d="m 24364.2,11139.4 c 20.4,-4.8 50.3,-3 72.3,-2.2 130.4,4.8 227.4,89.2 222.6,219.5 l -81.5,2210.7 c -3.6,96.9 -65.9,181.7 -157.3,214 l -1499.2,530.3 c -123,43.5 -258,-20.9 -301.5,-143.9 -43.5,-123 20.9,-258 143.9,-301.5 l 1347.9,-476.8 75.6,-2050.2 c 4,-108.4 76.6,-175.8 177.2,-199.9"
            style="fill:#f69d85;fill-opacity:1;fill-rule:nonzero;stroke:none" id="path104" />
         <path
            d="m 22281.6,14839 c 0,0 -272.4,-660.7 105.5,-1073.4 335.4,-366.3 1599.6,-471.8 1599.6,-471.8 l 30.7,-1603.3 c 0,0 445.1,-105.4 723.1,-10.7 39.8,308 234.8,1640.1 -3.7,2078.3 -132.6,243.8 -767,803.6 -1174.7,977.2 l -1280.5,103.7"
            style="fill:#3e8edd;fill-opacity:1;fill-rule:nonzero;stroke:none" id="path106" />
         <path
            d="m 24145.9,11209.5 c 2.7,-12.6 7.6,-24.4 14.4,-34.9 16.8,-26 45,-43.9 77.8,-45.6 l 751.1,-37.5 c 37.4,-1.9 66.8,18.3 82.5,46.4 4.8,8.5 8.3,17.8 10.3,27.5 6.2,29.1 -0.8,61.3 -25.4,86 l -99.2,99.2 -106.7,106.6 c -350.1,-35.8 -678.1,73.6 -678.1,73.6 l -16.1,-163.6 -12.3,-125.3 c -1.1,-11.2 -0.5,-22 1.7,-32.4"
            style="fill:#404d7f;fill-opacity:1;fill-rule:nonzero;stroke:none" id="path108" />
         <path
            d="m 24910.3,11397.6 c 0,0 -150.2,151.8 -195.3,188.5 -45.2,36.7 -164.5,-0.8 -153.9,-49.3 10.5,-48.4 87.8,-128.1 87.8,-128.1 l 261.4,-11.1"
            style="fill:#404d7f;fill-opacity:1;fill-rule:nonzero;stroke:none" id="path110" />
         <path
            d="m 24139.7,11210.7 c -0.1,-1.6 -0.1,-2.5 -0.1,-2.5 10.1,-48 50.4,-83.1 98.2,-85.7 l 313.4,-15.7 437.7,-21.8 h 0.3 c 18.4,-0.9 34.3,3 47.9,10.1 28.1,14.3 45.6,42.1 51.3,69 0.3,1.9 -0.1,3.8 -1.3,5.3 -0.9,1.3 -2.4,2.2 -4,2.4 l -0.7,0.1 -18.6,0.9 -263,12.4 -207.8,9.7 -52.9,2.5 -193.3,9.2 h -0.3 l -110.8,5.2 -89.5,4.2 c -0.4,0 -0.9,0 -1.4,-0.1 -1.4,-0.3 -2.8,-1 -3.8,-2.1 -0.7,-0.9 -1.2,-1.9 -1.3,-3.1"
            style="fill:#606a97;fill-opacity:1;fill-rule:nonzero;stroke:none" id="path112" />
         <path d="m 24957.4,11350.6 c 0,0 152.3,-98.1 131,-186.5 l -288.6,16.5 c 0,0 23.2,132 157.6,170"
            style="fill:#606a97;fill-opacity:1;fill-rule:nonzero;stroke:none" id="path114" />
         <path d="m 24156.5,11367.2 c 0,0 164.4,-18.5 190.2,-160.6 l -207.1,1.6 c 0,0 -0.3,58.1 16.9,159"
            style="fill:#606a97;fill-opacity:1;fill-rule:nonzero;stroke:none" id="path116" />
         <path
            d="m 23831.9,16930.3 c 0,0 -262.1,-1370.9 -80.1,-1760.4 153.1,-327.6 1492.7,-594.2 1492.7,-594.2 0,0 -43.4,178.9 48.2,435.8 0,0 -334.9,271.1 -733.1,489.2 0,0 -86.9,1280 -727.7,1429.6"
            style="fill:#60bf60;fill-opacity:1;fill-rule:nonzero;stroke:none" id="path118" />
         <path d="m 23392.5,17463.9 -66.3,-599.4 382.4,-42.3 66.3,599.4 -382.4,42.3"
            style="fill:#f69d85;fill-opacity:1;fill-rule:nonzero;stroke:none" id="path120" />
         <path d="m 23430.7,17156.3 c 151.9,-99.3 303.8,-99.2 303.8,-99.2 l 12.9,116.1 -316.7,-16.9"
            style="fill:#d1836b;fill-opacity:1;fill-rule:nonzero;stroke:none" id="path122" />
         <path
            d="m 23273.9,14746.7 23.2,-2.5 c 353.1,-39.1 671.1,215.6 710.1,568.7 l 2.2,561.6 c 39,353.1 -109.5,1088.7 -462.7,1127.8 l -23.2,2.5 c -353.1,39.1 -671.1,-215.6 -710.1,-568.7 l -108.3,-979.2 c -39.1,-353.2 215.6,-671.1 568.8,-710.2"
            style="fill:#f69d85;fill-opacity:1;fill-rule:nonzero;stroke:none" id="path124" />
         <path
            d="m 23831.9,16930.3 c 0,0 -303.5,-226.4 -583,86.5 0,0 -376.4,-65.1 -608.7,-559.4 -424.2,-902.2 -419.1,-1615.6 -419.1,-1615.6 0,0 254.4,-136.5 883.2,-76.3 507.4,48.5 965.7,-42 965.7,-42 0,0 73.4,533.7 85.1,1109.9 10.7,529 -138.8,823.5 -323.2,1096.9"
            style="fill:#60bf60;fill-opacity:1;fill-rule:nonzero;stroke:none" id="path126" />
         <path
            d="m 23350,17079.1 c 0,0 168.4,-142.2 265.9,-153 88,-9.7 112.6,76 112.6,76 l 103.4,-71.8 -108.5,-227.1 -101.3,150.8 -96.3,-142.9 -276.9,305.7 101.1,62.3"
            style="fill:#f1f3f2;fill-opacity:1;fill-rule:nonzero;stroke:none" id="path128" />
         <path
            d="m 23102.6,17689.8 c -9.2,-58.7 30.9,-113.6 89.6,-122.8 58.6,-9.2 113.6,30.9 122.7,89.6 9.2,58.6 -30.9,113.6 -89.5,122.7 -58.7,9.2 -113.6,-30.9 -122.8,-89.5"
            style="fill:#f69d85;fill-opacity:1;fill-rule:nonzero;stroke:none" id="path130" />
         <path
            d="m 23194.7,17604.9 c 0.3,-0.2 0.7,-0.3 1.1,-0.4 3.3,-0.9 6.8,1.2 7.6,4.5 10.2,39.9 -14.7,54.3 -31.1,63.8 -7.3,4.2 -14.3,8.2 -15.5,12.7 -0.6,2.5 0.3,5.9 2.8,10.1 19.6,33.3 63.7,24.7 65.6,24.3 3.4,-0.7 6.7,1.5 7.4,4.9 0.7,3.4 -1.5,6.7 -4.9,7.4 -2.2,0.5 -54.7,10.9 -78.9,-30.2 -4.4,-7.3 -5.7,-13.8 -4.1,-19.7 2.5,-9.6 11.6,-14.8 21.3,-20.4 16.3,-9.4 33,-19.1 25.2,-49.8 -0.7,-3 0.8,-6 3.5,-7.2"
            style="fill:#af5945;fill-opacity:1;fill-rule:nonzero;stroke:none" id="path132" />
         <path
            d="m 23975.8,17539.4 c -9.2,-58.6 30.9,-113.6 89.6,-122.7 58.6,-9.2 113.6,30.9 122.7,89.5 9.2,58.7 -30.9,113.6 -89.5,122.8 -58.7,9.2 -113.6,-30.9 -122.8,-89.6"
            style="fill:#f69d85;fill-opacity:1;fill-rule:nonzero;stroke:none" id="path134" />
         <path
            d="m 24081.2,17452.2 c 0.6,-0.3 1.3,-0.5 2.1,-0.5 3.5,-0.3 6.5,2.3 6.8,5.8 2.4,31.5 21.4,35.3 39.8,39 10.9,2.2 21.3,4.2 26.8,12.5 3.3,5.1 4.1,11.6 2.4,20 -9.7,46.7 -62.8,53.7 -65.1,53.9 -3.4,0.4 -6.6,-2 -7,-5.5 -0.4,-3.4 2,-6.5 5.5,-7 1.9,-0.2 46.4,-6.2 54.3,-44 1,-4.8 0.8,-8.3 -0.6,-10.5 -2.6,-3.8 -10.5,-5.4 -18.8,-7.1 -18.6,-3.7 -46.7,-9.3 -49.9,-50.4 -0.2,-2.7 1.3,-5.1 3.7,-6.2"
            style="fill:#af5945;fill-opacity:1;fill-rule:nonzero;stroke:none" id="path136" />
         <path
            d="m 23569.5,17137.5 v 0 c 220.7,-34.5 427.6,116.4 462.1,337.1 l 32.5,207.5 c 34.5,220.7 -116.5,427.6 -337.2,462.1 v 0 c -220.7,34.5 -427.6,-116.4 -462.1,-337.1 l -32.5,-207.5 c -34.5,-220.7 116.4,-427.6 337.2,-462.1"
            style="fill:#f69d85;fill-opacity:1;fill-rule:nonzero;stroke:none" id="path138" />
         <path
            d="m 23489.5,17452.3 c -3,-24.1 9,-59 42.4,-88.1 45.3,-39.6 144,-56.9 192.5,-38 26,10.1 45.2,30.4 53.3,49.7 6.9,16.7 5.5,32.7 -6.9,41 -26.9,17.8 -109.7,8.5 -160.6,33.8 -54.7,27.2 -94.7,41.9 -112.1,22.4 -4.6,-5.1 -7.5,-12.2 -8.6,-20.8"
            style="fill:#d1836b;fill-opacity:1;fill-rule:nonzero;stroke:none" id="path140" />
         <path
            d="m 23489.5,17452.3 c 110.8,-70.4 270.4,-75.9 288.2,-76.4 6.9,16.7 5.5,32.7 -6.9,41 -26.9,17.8 -109.7,8.5 -160.6,33.8 -54.7,27.2 -94.7,41.9 -112.1,22.4 -4.6,-5.1 -7.5,-12.2 -8.6,-20.8"
            style="fill:#ffffff;fill-opacity:1;fill-rule:nonzero;stroke:none" id="path142" />
         <path
            d="m 23705.4,17424.1 c -32.6,3.2 -69.6,6.9 -98,20.9 -45.3,22.6 -89.3,41.1 -104.6,23.9 -3.7,-4.1 -6.2,-10.1 -7,-17.4 v 0 c -2.5,-19.7 6.6,-53.2 40.2,-82.6 42.1,-36.7 137.7,-55.6 186.1,-36.9 26.8,10.4 43.3,30.8 49.8,46.3 2.3,5.6 8.8,24.5 -4.6,33.4 -1.2,0.7 -2.5,1.5 -4.1,2.2 -12.4,5.7 -34.5,7.9 -57.8,10.2 z m -177.6,-64.7 c -37.4,32.6 -47.5,69.7 -44.5,93.7 1.2,9.8 4.7,18.1 10.1,24.2 19.8,22.2 60.5,8.5 119.6,-21 26.3,-13.1 62.1,-16.6 93.7,-19.7 28.9,-2.9 53.8,-5.3 67.6,-14.5 14.2,-9.4 17.7,-28 9.2,-48.6 -9.5,-22.9 -31.3,-43.3 -56.9,-53.2 -40.9,-15.9 -110.4,-7.6 -160.9,15.5 -14.7,6.7 -27.7,14.7 -37.9,23.6"
            style="fill:#af5945;fill-opacity:1;fill-rule:nonzero;stroke:none" id="path144" />
         <path
            d="m 23420.9,17622.5 c -6.7,-20.6 6.2,-43.1 28.7,-50.4 22.5,-7.4 46.1,3.3 52.8,23.9 6.7,20.5 -6.1,43.1 -28.6,50.4 -22.6,7.3 -46.2,-3.4 -52.9,-23.9"
            style="fill:#d1836b;fill-opacity:1;fill-rule:nonzero;stroke:none" id="path146" />
         <path
            d="m 23851.5,17518 c -6.7,-20.5 6.1,-43.1 28.7,-50.4 22.5,-7.3 46.1,3.4 52.8,23.9 6.7,20.6 -6.2,43.2 -28.7,50.5 -22.5,7.3 -46.1,-3.4 -52.8,-24"
            style="fill:#d1836b;fill-opacity:1;fill-rule:nonzero;stroke:none" id="path148" />
         <path
            d="m 23467.6,18210.2 c 0,0 -31.1,141.3 47.1,189.4 79.7,49 174.9,-34.4 211.8,-99.6 0,0 27,58.8 74.8,109.3 83.4,87.9 266.7,3.6 124.3,-177.7 0,0 70.4,87.2 205.2,35.6 134.8,-51.5 47.9,-202.3 -75.6,-216.9 0,0 151.5,14.5 181.7,-113.7 14.3,-60.9 -18.3,-99.1 -73.8,-113.7 -9.6,-48.9 -36.2,-140.5 -107.7,-195.9 0,0 1.3,124.3 -42.7,202.6 -28.5,7.7 -57.8,18.8 -86.6,33.3 -163,82.3 -240.2,186.3 -240.2,186.3 0,0 -42.4,-84.8 -137.4,-104.8 -47.4,-10 -96.4,-7 -141.1,7.3 l 1.8,-2.4 c 0,0 -86.2,-60.2 -150.9,-183.4 0,0 -94.6,161.6 33.5,261.3 -63.4,75.8 3.3,251.9 175.8,183"
            style="fill:#5e3628;fill-opacity:1;fill-rule:nonzero;stroke:none" id="path150" />
         <path
            d="m 23669.8,17510.8 c 0.9,-0.4 1.9,-0.6 2.9,-0.6 5.9,0.3 57.8,3.6 60.1,30.6 2,22.7 -14.8,129 -15.5,133.5 -0.6,3.4 -3.8,5.8 -7.2,5.2 -3.5,-0.5 -5.8,-3.7 -5.3,-7.2 4.8,-30.3 17,-112.9 15.5,-130.5 -1.1,-12.6 -32.9,-18.2 -48.2,-19 -3.5,-0.2 -6.1,-3.1 -6,-6.6 0.2,-2.4 1.6,-4.5 3.7,-5.4"
            style="fill:#af5945;fill-opacity:1;fill-rule:nonzero;stroke:none" id="path152" />
         <path
            d="m 23850.1,17651.8 c -6.5,-29.5 -23.9,-50.7 -38.9,-47.4 -15,3.3 -22,29.9 -15.5,59.4 6.5,29.4 23.9,50.6 38.9,47.3 15.1,-3.3 22,-29.8 15.5,-59.3"
            style="fill:#30313c;fill-opacity:1;fill-rule:nonzero;stroke:none" id="path154" />
         <path
            d="m 23627.5,17693.4 c -6.5,-29.5 -23.9,-50.7 -39,-47.4 -15,3.3 -21.9,29.8 -15.4,59.3 6.4,29.5 23.9,50.7 38.9,47.4 15,-3.3 21.9,-29.9 15.5,-59.3"
            style="fill:#30313c;fill-opacity:1;fill-rule:nonzero;stroke:none" id="path156" />
         <path
            d="m 23796.8,17791.7 c 1.5,-0.6 3.1,-1 4.8,-0.9 67,2.4 121.7,-47.5 122.2,-48 4.3,-4 11,-3.7 14.9,0.5 4,4.3 3.7,11 -0.5,15 -2.5,2.3 -61.7,56.3 -137.4,53.6 -5.8,-0.2 -10.3,-5.1 -10.1,-10.9 0.1,-4.2 2.6,-7.6 6.1,-9.3"
            style="fill:#af5945;fill-opacity:1;fill-rule:nonzero;stroke:none" id="path158" />
         <path
            d="m 23507.6,17822.2 c 2.5,-1.1 5.4,-1.3 8.2,-0.3 82.8,31.4 124.4,-4.2 124.9,-4.6 4.3,-3.9 11,-3.5 14.9,0.9 3.8,4.4 3.4,11.1 -0.9,14.9 -2.1,1.8 -51.8,44.4 -146.4,8.6 -5.5,-2.1 -8.2,-8.2 -6.1,-13.6 1,-2.7 3,-4.8 5.4,-5.9"
            style="fill:#af5945;fill-opacity:1;fill-rule:nonzero;stroke:none" id="path160" />
         <path d="m 23355.4,15377.8 c 0,0 18.8,-316.3 -235.6,-471.6 0,0 -79.1,370.2 235.6,471.6"
            style="fill:#339e33;fill-opacity:1;fill-rule:nonzero;stroke:none" id="path162" />
         <path
            d="m 23494.3,17515.9 c 13.6,4 28.2,2.3 40.9,-3.9 112,-54.1 201.2,-65.6 244.8,-67.7 28,-1.2 52.7,-22.1 54.6,-50.1 0.6,-8 -0.6,-16.6 -4.7,-25.4 -22.7,-49.6 -77.6,-97.9 -216,-69.5 -130.3,26.8 -177.6,139 -165,178.5 7.1,22.2 28.3,33 45.4,38.1 z m -187.2,168 c -6.6,61.1 -42.3,123.2 -42.3,123.2 0,0 -123.5,-397.8 78.1,-590.6 149.8,-143.3 479,-174.4 628.7,61.6 103.2,162.5 82.6,383.1 82.6,383.1 0,0 -26.5,-60.1 -46.4,-104.4 -19.6,-43.8 -31,-105.7 -74.9,-163.5 l -40.5,41.7 c -31,25.2 -68.8,41.5 -108.6,43.7 -0.3,0.1 -0.6,0.1 -0.9,0.1 -47.7,2.4 -129.6,13.3 -211,55.6 -15.1,7.9 -31.1,13.4 -47.6,16.7 -28.8,5.7 -58.6,3.3 -87,-4.3 l -72.9,-27.6 c 0,0 -41.9,23.1 -57.3,164.7"
            style="fill:#5e3628;fill-opacity:1;fill-rule:nonzero;stroke:none" id="path164" />
         <path
            d="m 22043.8,15420.6 1312,-503 c 86.1,-33 182.6,10.1 215.6,96.2 33,86.1 -10,182.6 -96.1,215.6 l -1102.9,422.8 707.7,919.6 c 56.2,73 42.6,177.8 -30.5,234.1 -73,56.2 -177.9,42.5 -234.1,-30.5 l -844.3,-1097.1 c -32.1,-41.8 -42.7,-96.3 -28.4,-147 14.3,-50.8 51.7,-91.8 101,-110.7"
            style="fill:#f69d85;fill-opacity:1;fill-rule:nonzero;stroke:none" id="path166" />
         <path
            d="m 23252.6,14957.4 c 0,0 118.2,-65.1 272.1,-72.5 144.2,-6.8 194.2,28.7 239.1,72.6 45,44 -154.8,210.9 -249,229 -94.2,18.1 -212.1,-95.4 -262.2,-229.1"
            style="fill:#f69d85;fill-opacity:1;fill-rule:nonzero;stroke:none" id="path168" />
         <path
            d="m 23514.7,14885.5 c 74.9,-6.5 146.1,-28 208.7,-70.1 28.1,-19 75.6,-80.5 113.5,-39.8 47.4,59.1 -217.8,226.1 -269.5,246.8 -130.9,76.6 -182.7,-136.7 -52.7,-136.9"
            style="fill:#f69d85;fill-opacity:1;fill-rule:nonzero;stroke:none" id="path170" />
         <path
            d="m 23582.4,14929.6 c 72.9,-2.7 145.1,-27.3 210.3,-60.7 36.8,-11.7 82.2,-75.6 117.1,-31.2 31.3,49.2 -107.9,126.7 -143,152.7 -52.9,31.2 -110.3,57.7 -171.2,70.3 -85.7,8.2 -99,-122 -13.2,-131.1"
            style="fill:#f69d85;fill-opacity:1;fill-rule:nonzero;stroke:none" id="path172" />
         <path
            d="m 23597.5,14990.5 c 112.6,3 227.7,-32.5 317.6,-101.5 33,-25.3 75.1,23.6 45.5,52.5 -34.2,36.6 -74.3,69.2 -117.3,95.4 -75.2,44.2 -159.2,75.9 -246.3,85.7 -94.7,6.9 -94.3,-139.7 0.5,-132.1"
            style="fill:#f69d85;fill-opacity:1;fill-rule:nonzero;stroke:none" id="path174" />
         <path
            d="m 23487.3,15105.9 c 118.4,3.6 240.9,-14.9 348.3,-65.6 35.5,-17 68.5,-38.5 98,-64.5 14.4,-13.5 37.3,-12.4 50.3,2.6 47.9,66.2 -177.6,179.6 -228.8,198 -87.6,33.6 -195.5,54.1 -289.2,60.5 -94.1,2.7 -72.3,-141.4 21.4,-131"
            style="fill:#f69d85;fill-opacity:1;fill-rule:nonzero;stroke:none" id="path176" />
         <path
            d="m 23784.2,14869.4 c 1.4,-0.1 2.9,0.4 3.9,1.5 1.7,1.8 1.6,4.7 -0.3,6.4 -0.5,0.5 -54.1,49.5 -140.2,84.3 -2.3,0.9 -5,-0.2 -5.9,-2.5 -1,-2.3 0.2,-5 2.5,-5.9 84.5,-34.2 136.9,-82.1 137.5,-82.6 0.7,-0.7 1.6,-1 2.5,-1.2"
            style="fill:#af5945;fill-opacity:1;fill-rule:nonzero;stroke:none" id="path178" />
         <path
            d="m 23849.5,14926.7 c 1.5,-0.2 3,0.3 4.1,1.6 1.5,2 1.3,4.8 -0.7,6.4 -0.6,0.5 -62.9,50.6 -156,93 -2.3,1.1 -5,0.1 -6,-2.2 -1.1,-2.3 0,-5 2.2,-6.1 92,-41.9 153.5,-91.3 154.1,-91.8 0.6,-0.5 1.4,-0.8 2.3,-0.9"
            style="fill:#af5945;fill-opacity:1;fill-rule:nonzero;stroke:none" id="path180" />
         <path
            d="m 23879.1,15009 c 1.7,-0.2 3.4,0.5 4.4,2 1.4,2.1 0.8,4.9 -1.4,6.3 -0.7,0.5 -75.5,48.3 -145.7,77.9 -2.4,1 -5,-0.1 -6,-2.4 -1,-2.3 0.1,-5 2.4,-6 69.6,-29.2 143.7,-76.7 144.4,-77.2 0.6,-0.3 1.3,-0.6 1.9,-0.6"
            style="fill:#af5945;fill-opacity:1;fill-rule:nonzero;stroke:none" id="path182" />
         <path
            d="m 23248.9,17016.8 c 0,0 -359,108.7 -751.7,-282.9 -392.7,-391.5 -793.9,-907 -714.3,-1231.3 83.1,-338.6 1336.9,-596.4 1336.9,-596.4 0,0 -26.2,249.4 235.6,471.6 l -720.5,325.4 c 0,0 867,991.2 614,1313.6"
            style="fill:#60bf60;fill-opacity:1;fill-rule:nonzero;stroke:none" id="path184" />
         <path
            d="m 24751.4,13720.8 c 1.1,-0.1 2.2,0.1 3.2,0.5 3.5,1.4 5.2,5.4 3.8,8.9 -143.1,349.7 -769.2,758.9 -775.5,763 -3.2,2 -7.4,1.1 -9.4,-2 -2.1,-3.2 -1.2,-7.4 2,-9.4 6.2,-4.1 628.8,-411 770.3,-756.8 0.9,-2.4 3.2,-3.9 5.6,-4.2"
            style="fill:#305777;fill-opacity:1;fill-rule:nonzero;stroke:none" id="path186" />
         <path
            d="m 25540.7,12437.8 c 0.3,0 0.7,0 1.1,0 357,22.6 712,243.7 715.5,246 3.2,2 4.2,6.1 2.2,9.3 -2.1,3.2 -6.3,4.2 -9.4,2.2 -3.5,-2.2 -355.7,-221.5 -709.2,-243.9 -3.8,-0.3 -6.6,-3.5 -6.4,-7.2 0.2,-3.4 2.9,-6.1 6.2,-6.4"
            style="fill:#305777;fill-opacity:1;fill-rule:nonzero;stroke:none" id="path188" />
         <path
            d="m 25492.6,12544.8 c 0.5,-0.1 1,-0.1 1.4,0 370,39.8 728,256.2 731.5,258.4 3.2,2 4.3,6.2 2.3,9.4 -2,3.2 -6.1,4.2 -9.4,2.2 -3.5,-2.1 -359,-217 -725.8,-256.5 -3.8,-0.4 -6.5,-3.7 -6.1,-7.5 0.4,-3.2 3,-5.7 6.1,-6"
            style="fill:#305777;fill-opacity:1;fill-rule:nonzero;stroke:none" id="path190" />
         <path
            d="m 24242.2,11770.7 c 300.7,-28.8 512,14.3 514.6,14.8 3.7,0.8 6,4.4 5.2,8.1 -0.7,3.7 -4.3,6 -8,5.2 -3.2,-0.6 -323.9,-65.9 -737.5,19.5 -3.6,0.9 -7.3,-1.6 -8.1,-5.2 -0.7,-3.7 1.6,-7.3 5.3,-8.1 80.2,-16.5 156.9,-27.5 228.5,-34.3"
            style="fill:#305777;fill-opacity:1;fill-rule:nonzero;stroke:none" id="path192" />
         <path
            d="m 24251.8,11882.2 c 278.7,-26.6 513.9,26.2 516.9,26.9 3.7,0.9 6,4.6 5.1,8.2 -0.8,3.7 -4.5,5.9 -8.1,5.1 -3.8,-0.8 -385.4,-86.6 -751.1,17.1 -3.6,1.1 -7.4,-1 -8.4,-4.7 -1,-3.6 1.1,-7.3 4.7,-8.4 80.9,-22.9 162.6,-36.7 240.9,-44.2"
            style="fill:#305777;fill-opacity:1;fill-rule:nonzero;stroke:none" id="path194" />
         <path
            d="m 23354.7,15371.1 c 2.8,-0.3 5.6,1.2 6.9,3.9 1.5,3.4 0,7.5 -3.4,9 l -712.8,321.9 c 45.8,62.5 394,538.8 529,755.5 2,3.2 1,7.4 -2.2,9.4 -3.2,1.9 -7.4,1 -9.4,-2.2 -143.6,-230.6 -529.5,-756.1 -533.4,-761.4 -1.2,-1.7 -1.6,-3.8 -1.1,-5.8 0.5,-2 1.9,-3.6 3.8,-4.5 l 720.5,-325.3 c 0.7,-0.3 1.4,-0.5 2.1,-0.5"
            style="fill:#339e33;fill-opacity:1;fill-rule:nonzero;stroke:none" id="path196" />
         <path
            d="m 24120.8,15194.1 c 3.7,-0.4 7,2.3 7.4,6 80.6,689 -104.6,1181.4 -106.4,1186.3 -1.4,3.5 -5.3,5.2 -8.8,3.9 -3.5,-1.4 -5.3,-5.3 -3.9,-8.8 1.8,-4.9 185.7,-494.3 105.6,-1179.9 -0.4,-3.7 2.2,-7.1 6,-7.5 0,0 0.1,0 0.1,0"
            style="fill:#339e33;fill-opacity:1;fill-rule:nonzero;stroke:none" id="path198" />
         <path
            d="m 23917.3,14642.3 1639,-181.2 333.5,939.8 c 28.9,81.5 -25.7,168.6 -111.6,178.1 l -1365.2,150.9 c -61.9,6.9 -120.3,-29.7 -141.1,-88.4 l -336.2,-947.5 -18.4,-51.7"
            style="fill:#404660;fill-opacity:1;fill-rule:nonzero;stroke:none" id="path200" />
         <path
            d="m 24040.8,14628.6 1515.5,-167.5 333.5,939.8 c 28.9,81.5 -25.7,168.6 -111.6,178.1 l -1241.7,137.3 c -61.8,6.8 -120.3,-29.8 -141.1,-88.4 l -354.6,-999.3"
            style="fill:#606a97;fill-opacity:1;fill-rule:nonzero;stroke:none" id="path202" />
         <path d="m 23075.7,14735.3 915.9,-101.2 11.8,106.1 -916,101.3 -11.7,-106.2"
            style="fill:#404660;fill-opacity:1;fill-rule:nonzero;stroke:none" id="path204" />
         <path
            d="m 23119.2,14899.4 c 3.5,-0.3 6.7,2.1 7.3,5.5 0.7,3.7 -1.7,7.3 -5.4,8 -4.5,0.9 -457.4,87.9 -873,260.3 -3.5,1.4 -7.4,-0.2 -8.9,-3.7 -1.4,-3.5 0.2,-7.5 3.7,-8.9 416.9,-172.9 871.1,-260.2 875.7,-261.1 0.2,0 0.4,0 0.6,-0.1"
            style="fill:#339e33;fill-opacity:1;fill-rule:nonzero;stroke:none" id="path206" />
         <path d="m 10697.4,9433.2 c 0,0 261.8,-2.2 424.9,-206.8 0,0 -259.5,-64.9 -424.9,206.8"
            style="fill:#997243;fill-opacity:1;fill-rule:nonzero;stroke:none" id="path208" />
         <path
            d="m 8610.84,9787.7 c 0,0 -161.08,-110.7 -270.87,-391.8 -79.48,-203.5 -283.54,-540.2 -368.5,-736 -343.28,-791.1 -43.26,-1205 1010.58,-1173.2 497.84,15 610.54,399.9 529.19,737.8 -80.9,336 -180.48,660.1 -97.74,1029.8 0,0 -81.07,328.8 -275.45,390.2 -194.38,61.3 -527.21,143.2 -527.21,143.2"
            style="fill:#b74f2a;fill-opacity:1;fill-rule:nonzero;stroke:none" id="path210" />
         <path d="m 8700.15,9034 21.77,-592.4 377.91,13.9 -21.77,592.4 -377.91,-13.9"
            style="fill:#f69d85;fill-opacity:1;fill-rule:nonzero;stroke:none" id="path212" />
         <path d="m 8818.77,8716 c 0,0 119.84,-89.9 273.65,-58.8 l -7.58,206.2 -266.07,-147.4"
            style="fill:#d1836b;fill-opacity:1;fill-rule:nonzero;stroke:none" id="path214" />
         <path
            d="m 8981.67,8690 v 0 c 219.34,11.1 388.22,197.8 377.21,417.1 l -10.35,206.2 c -11.01,219.3 -197.74,388.2 -417.07,377.2 h -0.01 c -219.33,-11 -388.21,-197.8 -377.2,-417.1 l 10.35,-206.2 c 11.01,-219.3 197.74,-388.2 417.07,-377.2"
            style="fill:#f69d85;fill-opacity:1;fill-rule:nonzero;stroke:none" id="path216" />
         <path
            d="m 8922.79,6297.7 c 349.05,12.8 864.45,127.3 711,601.4 -78.81,243.6 -178.23,573.1 -123.54,1016.4 42.77,346.6 -238.48,693.7 -593.7,691.8 l -22.93,-0.9 C 8553.18,8588.5 8398.4,8242.6 8447.11,7896.8 8509.87,7451 8417.19,7136 8332.34,6908 c -232.59,-624.7 590.45,-610.3 590.45,-610.3"
            style="fill:#f69d85;fill-opacity:1;fill-rule:nonzero;stroke:none" id="path218" />
         <path
            d="m 9022.99,8258.2 c -17.02,127.8 72.82,245.2 200.67,262.3 l 1045.94,139.2 574.6,886 c 40.1,62 120.7,86.6 189.5,54.7 75.5,-34.9 108.3,-124.4 73.3,-199.8 l -496.3,-1071.2 c -28.6,-60.6 -87,-107.1 -158.3,-116.5 L 9285.28,8057.5 c -127.84,-17 -245.28,72.8 -262.29,200.7"
            style="fill:#f69d85;fill-opacity:1;fill-rule:nonzero;stroke:none" id="path220" />
         <path
            d="m 8895.31,9222.3 c 1.47,-29.7 -9.58,-54.3 -24.68,-55 -15.1,-0.8 -28.54,22.6 -30.01,52.3 -1.47,29.6 9.58,54.2 24.68,54.9 15.1,0.8 28.54,-22.6 30.01,-52.2"
            style="fill:#30313c;fill-opacity:1;fill-rule:nonzero;stroke:none" id="path222" />
         <path
            d="m 9095.28,8579.7 c 0,0 415.66,88.5 1126.62,118.3 0,0 292.3,484.1 475.5,735.2 0,0 161,-193.2 424.9,-206.8 0,0 -312.4,-940.1 -574.3,-1048 -261.8,-107.9 -1015.6,-214.8 -1015.6,-214.8 l -437.12,616.1"
            style="fill:#ffb12a;fill-opacity:1;fill-rule:nonzero;stroke:none" id="path224" />
         <path
            d="m 9135.09,9234.2 c 1.47,-29.6 -9.57,-54.2 -24.68,-55 -15.1,-0.8 -28.53,22.7 -30.01,52.3 -1.47,29.6 9.58,54.2 24.68,55 15.1,0.7 28.54,-22.7 30.01,-52.3"
            style="fill:#30313c;fill-opacity:1;fill-rule:nonzero;stroke:none" id="path226" />
         <path
            d="m 8729.28,9107.8 c -2.31,-21.1 14.56,-40.2 37.68,-42.8 23.12,-2.5 43.74,12.6 46.06,33.7 2.31,21.1 -14.56,40.2 -37.68,42.8 -23.13,2.5 -43.75,-12.6 -46.06,-33.7"
            style="fill:#e58a76;fill-opacity:1;fill-rule:nonzero;stroke:none" id="path228" />
         <path
            d="m 9176.84,9112.8 c -2.31,-21.1 14.56,-40.3 37.68,-42.8 23.12,-2.5 43.74,12.5 46.06,33.6 2.31,21.1 -14.56,40.3 -37.68,42.8 -23.13,2.6 -43.75,-12.5 -46.06,-33.6"
            style="fill:#e58a76;fill-opacity:1;fill-rule:nonzero;stroke:none" id="path230" />
         <path
            d="m 9095.28,8579.7 c 0,0 190.14,-35.1 384.9,-309 53.39,-75.1 176.37,-276.3 180.79,-396.5 4.8,-130.7 -125.78,-209.8 -117.09,-446.4 8.62,-234.6 185.8,-378.8 89.91,-528.7 -56.41,-88.1 -931.45,-237.6 -1308.65,-13.7 -209.87,124.6 134.2,406.6 30.15,1049.9 -79.24,489.9 189.83,578.4 361.82,630.5 0,0 147.41,-369.1 277.19,-357.7 133.24,11.7 100.98,371.6 100.98,371.6"
            style="fill:#ffb12a;fill-opacity:1;fill-rule:nonzero;stroke:none" id="path232" />
         <path
            d="m 8433.86,9144.5 c 2.92,-58.3 52.53,-103.1 110.79,-100.2 58.26,2.9 103.13,52.5 100.2,110.8 -2.92,58.2 -52.53,103.1 -110.79,100.2 -58.26,-3 -103.12,-52.6 -100.2,-110.8"
            style="fill:#f69d85;fill-opacity:1;fill-rule:nonzero;stroke:none" id="path234" />
         <path
            d="m 9084.78,9773.8 c 0,0 182.53,62.3 309.75,-108.6 111.28,-149.5 65.98,-313.9 -2.12,-466.9 0,0 -254.16,333.4 -307.63,575.5"
            style="fill:#b74f2a;fill-opacity:1;fill-rule:nonzero;stroke:none" id="path236" />
         <path
            d="m 9250.06,9167.9 c 2.93,-58.3 52.53,-103.1 110.8,-100.2 58.26,2.9 103.12,52.5 100.19,110.8 -2.92,58.3 -52.52,103.1 -110.79,100.2 -58.26,-2.9 -103.12,-52.5 -100.2,-110.8"
            style="fill:#f69d85;fill-opacity:1;fill-rule:nonzero;stroke:none" id="path238" />
         <path
            d="m 8942.59,8964.8 c 0.21,-28.9 27.43,-52.1 60.82,-51.8 33.32,0.2 60.19,23.8 59.98,52.7 -0.04,6.5 -1.51,12.8 -4.1,18.5 -8.81,19.7 -30.9,33.5 -56.71,33.3 -22.54,-0.2 -42.12,-11.1 -52.39,-27 -4.93,-7.6 -7.64,-16.4 -7.6,-25.7"
            style="fill:#d1836b;fill-opacity:1;fill-rule:nonzero;stroke:none" id="path240" />
         <path
            d="m 8950.19,8990.5 c 70.98,-31.3 109.08,-6.3 109.08,-6.3 h 0.02 c -8.81,19.7 -30.9,33.5 -56.71,33.3 -22.54,-0.2 -42.12,-11.1 -52.39,-27"
            style="fill:#ffffff;fill-opacity:1;fill-rule:nonzero;stroke:none" id="path242" />
         <path
            d="m 9360.8,9111.6 c 2.99,0.6 5.15,3.3 4.96,6.4 -1.89,31.1 16.1,37.4 33.49,43.4 10.39,3.6 20.2,7.1 24.4,15.8 2.6,5.5 2.5,11.9 -0.33,19.8 -15.8,44.2 -68.45,43.8 -70.69,43.7 -3.4,0 -6.12,-2.8 -6.07,-6.2 0.05,-3.5 2.86,-6.2 6.28,-6.1 1.87,0 46.05,0.2 58.84,-35.6 1.62,-4.5 1.9,-8 0.81,-10.2 -1.97,-4.2 -9.42,-6.7 -17.3,-9.5 -17.62,-6.1 -44.24,-15.4 -41.78,-55.8 0.21,-3.4 3.14,-6 6.55,-5.8 0.29,0 0.57,0 0.84,0.1"
            style="fill:#af5945;fill-opacity:1;fill-rule:nonzero;stroke:none" id="path244" />
         <path
            d="m 8543.28,9089 c 2.61,0.6 4.68,2.8 4.94,5.5 3.73,40.4 -22.59,50.5 -40,57.1 -7.8,3 -15.16,5.9 -17,10 -1.02,2.3 -0.64,5.8 1.12,10.3 13.98,35.5 59.46,33.7 59.93,33.6 3.4,-0.1 6.31,2.5 6.48,5.9 0.16,3.4 -2.47,6.3 -5.88,6.5 -2.24,0.1 -54.85,2.2 -72.03,-41.5 -3.07,-7.8 -3.38,-14.2 -0.95,-19.8 3.92,-8.9 13.62,-12.6 23.9,-16.5 17.19,-6.6 34.97,-13.4 32.11,-44.4 -0.31,-3.4 2.19,-6.4 5.59,-6.7 0.62,-0.1 1.22,-0.1 1.79,0"
            style="fill:#af5945;fill-opacity:1;fill-rule:nonzero;stroke:none" id="path246" />
         <path
            d="m 9227.42,9657.1 c 0,0 -82.24,-216.8 -299.28,-222.1 -254.87,-6.2 -359.59,-330.5 -359.59,-330.5 0,0 -147.37,244.3 -105.01,419.5 96.92,400.7 510.7,499.9 763.88,133.1"
            style="fill:#b74f2a;fill-opacity:1;fill-rule:nonzero;stroke:none" id="path248" />
         <path
            d="m 9165.55,9342.3 c 1.33,0.3 2.63,0.8 3.82,1.6 4.72,3.3 5.94,9.7 2.72,14.4 -0.99,1.5 -24.74,35.8 -62.61,40.7 -22.42,2.9 -44.58,-4.9 -65.87,-23.4 -4.33,-3.8 -4.8,-10.3 -1.03,-14.6 3.74,-4.4 10.31,-4.8 14.64,-1.1 16.56,14.4 33.21,20.6 49.46,18.6 28.57,-3.7 48.07,-31.6 48.27,-31.9 2.42,-3.5 6.65,-5.1 10.6,-4.3"
            style="fill:#af5945;fill-opacity:1;fill-rule:nonzero;stroke:none" id="path250" />
         <path
            d="m 8926.51,9350.1 c 1.8,0.4 3.53,1.2 4.98,2.5 4.2,3.9 4.49,10.5 0.63,14.7 -0.96,1 -24.03,25.8 -57.94,24.9 -24.06,-0.6 -46.83,-13.8 -67.65,-39.1 -3.64,-4.4 -3.01,-11 1.42,-14.6 4.43,-3.6 10.96,-3 14.61,1.4 16.78,20.4 34.28,31 51.97,31.5 24.37,0.8 42.13,-18 42.3,-18.2 2.56,-2.7 6.25,-3.8 9.68,-3.1"
            style="fill:#af5945;fill-opacity:1;fill-rule:nonzero;stroke:none" id="path252" />
         <path
            d="m 9003.26,9058 c 0.31,0.1 0.62,0.1 0.92,0.2 5.46,2.1 53.12,20.4 47.4,46.4 -4.83,21.9 -51.87,116.6 -53.87,120.7 -1.52,3 -5.23,4.3 -8.29,2.8 -3.06,-1.6 -4.31,-5.3 -2.79,-8.3 13.44,-27.1 49.13,-100.9 52.86,-117.9 2.7,-12.2 -25.5,-26.9 -39.57,-32 -3.21,-1.2 -4.86,-4.8 -3.68,-8 1.07,-2.9 4.08,-4.5 7.02,-3.9"
            style="fill:#af5945;fill-opacity:1;fill-rule:nonzero;stroke:none" id="path254" />
         <path
            d="m 9440.81,7592.1 c 95.46,19.1 151.59,70 154.59,72.7 2.52,2.3 2.67,6.2 0.36,8.8 -2.33,2.5 -6.25,2.6 -8.75,0.3 -0.91,-0.8 -93.13,-84.1 -239.58,-76 -3.36,0.2 -6.33,-2.4 -6.52,-5.8 -0.18,-3.4 2.43,-6.3 5.84,-6.5 34.51,-1.9 65.99,0.9 94.06,6.5"
            style="fill:#dbbfb2;fill-opacity:1;fill-rule:nonzero;stroke:none" id="path256" />
         <path
            d="m 8926.74,7567.2 c 10.44,2.1 16.1,3.6 16.4,3.7 3.29,0.9 5.2,4.3 4.27,7.6 -0.93,3.3 -4.35,5.2 -7.63,4.3 -1.55,-0.4 -159.39,-43.4 -375.1,19.6 -3.3,1 -6.72,-0.9 -7.67,-4.2 -0.97,-3.3 0.91,-6.7 4.19,-7.7 179.04,-52.3 319.2,-32.6 365.54,-23.3"
            style="fill:#997243;fill-opacity:1;fill-rule:nonzero;stroke:none" id="path258" />
         <path
            d="m 10841.6,9497.9 c 0,0 88.2,144.4 220.2,189.8 132.1,45.4 194.3,33.4 244.3,1.4 50,-32 -109.9,-228 -195.6,-263.8 -85.8,-35.8 -198.7,-42.1 -268.9,72.6"
            style="fill:#f69d85;fill-opacity:1;fill-rule:nonzero;stroke:none" id="path260" />
         <path
            d="m 10834,9529.3 4.1,8.2 c 1.3,2.7 2.3,4.4 3.3,6.3 1.1,1.9 2.1,3.8 3.1,5.5 2.1,3.5 4.1,7.1 6.2,10.5 4.1,6.9 8.3,13.5 12.6,20.2 4.2,6.6 8.7,13 13,19.6 l 13.6,19.1 c 18.4,25.1 38.2,49.1 59.3,72 20.9,23 43.7,44.4 67.6,64.4 l 18.2,14.7 19.1,13.7 9.5,6.8 9.9,6.3 19.9,12.5 c 14.9,9.3 34.9,6.7 46.8,-7 13.1,-15.2 11.5,-38.1 -3.7,-51.3 l -2.1,-1.9 -15.3,-13.2 -7.6,-6.6 -7.2,-7.1 -14.4,-14.2 -9.3,-10.3 c 5.4,2.7 10.7,5.5 16.1,8.2 11.7,6.2 23.2,12.7 34.7,19.4 23,13.4 45.4,28 67.2,43.6 11,7.6 21.4,15.9 32.1,24 l 15.6,12.7 7.7,6.4 7.5,6.6 c 20.5,17.5 39,36.6 57.4,56.2 l 1,1.2 c 10.9,11.6 28.8,14.1 42.6,5.2 15.5,-10 19.9,-30.7 9.9,-46.2 -16.1,-24.8 -32.9,-49.6 -51.7,-72.5 l -6.9,-8.7 -7.2,-8.5 -5.1,-5.9 c 1.6,1.2 3.3,2.3 4.9,3.4 l 16.3,12.1 8.2,6.1 7.9,6.3 c 21.5,16.6 41.3,35 60.9,53.9 l 1.1,1.1 c 11.4,11 29.5,12.6 42.8,2.9 14.9,-10.8 18.2,-31.7 7.4,-46.6 -17.6,-24.2 -35.8,-48.2 -55.9,-70.3 l -7.1,-8 5.6,3.5 16.8,11.9 8.4,5.9 8,6.4 16,13 2.1,1.6 c 12.4,10 30.6,10 42.9,-0.9 13.9,-12.2 15.2,-33.3 3,-47.1 l -15.6,-17.7 -7.8,-8.8 -8.3,-8.4 -16.7,-16.6 -17.5,-15.7 c -9.4,-8.2 -19.1,-16 -28.9,-23.7 l 14.6,9.4 10.3,6.7 9.6,7.5 19.5,15 2.5,1.9 c 12.9,10 31.5,9.2 43.5,-2.5 13.2,-12.8 13.5,-33.9 0.7,-47.1 l -19.8,-20.3 -9.9,-10.1 -10.6,-9.4 -21.5,-18.6 -22.6,-17.1 c -3.8,-2.8 -7.5,-5.8 -11.4,-8.4 l -11.9,-7.8 c -7.9,-5 -15.7,-10.6 -23.9,-15.2 l -24.6,-14.1 c -8.2,-4.7 -16.8,-8.6 -25.2,-12.9 -33.9,-16.6 -68.9,-30.9 -105,-42.4 l -27.2,-8.2 c -9.1,-2.4 -18.3,-5.1 -27.6,-7.3 -9.2,-2.2 -18.6,-4.4 -28.1,-6.2 -4.7,-1.1 -9.7,-1.9 -14.5,-2.8 -2.4,-0.4 -4.9,-0.8 -7.5,-1.2 -2.6,-0.4 -5,-0.8 -8.6,-1.2 l -8.2,-0.9 c -4.5,-0.4 -9.1,-0.4 -13.7,0.1 -35,4 -60.1,35.5 -56.2,70.5 4,35 35.6,60.1 70.5,56.1 0.8,-0.1 2.5,0 4.2,0 -2.5,6.3 -4.2,13.1 -4.6,20.3 -0.5,7.2 0.4,14.2 2.2,20.8 -0.9,2.2 -1.7,4.3 -2.5,6.6 -29.6,-3.1 -58.3,15 -67.5,44.5 -0.8,2.6 -1.4,5.1 -1.8,7.7 -12.2,-18.8 -23.5,-38.2 -33.8,-58.1 l -9.1,-18.1 c -2.8,-6.1 -5.8,-12.2 -8.4,-18.3 -2.7,-6.1 -5.4,-12.2 -7.8,-18.2 -1.3,-3.1 -2.4,-6 -3.6,-9 -0.6,-1.5 -1.1,-3 -1.6,-4.3 -0.5,-1.5 -1.1,-3 -1.2,-3.6 -1.1,-5 -2.9,-10.2 -5.2,-14.9 -15.7,-31.6 -54.1,-44.5 -85.7,-28.8 -31.6,15.7 -44.5,54.1 -28.8,85.7"
            style="fill:#f69d85;fill-opacity:1;fill-rule:nonzero;stroke:none" id="path262" />
         <path
            d="m 11252.7,9503.3 c 0.4,0.1 0.8,0.2 1.2,0.4 78.4,32.9 142.8,90.6 143.5,91.2 2.5,2.3 2.7,6.2 0.4,8.7 -2.3,2.5 -6.2,2.7 -8.7,0.5 -0.7,-0.6 -63.5,-57 -140,-89 -3.1,-1.3 -4.6,-4.9 -3.3,-8.1 1.2,-2.8 4.1,-4.2 6.9,-3.7"
            style="fill:#af5945;fill-opacity:1;fill-rule:nonzero;stroke:none" id="path264" />
         <path
            d="m 11241.9,9583.5 c 0.8,0.1 1.5,0.4 2.2,0.8 84.8,55 142.6,113.5 143.2,114.1 2.4,2.4 2.4,6.3 -0.1,8.7 -2.4,2.4 -6.3,2.3 -8.7,-0.1 -0.6,-0.6 -57.5,-58.1 -141.1,-112.3 -2.9,-1.8 -3.7,-5.7 -1.9,-8.5 1.4,-2.2 4,-3.2 6.4,-2.7"
            style="fill:#af5945;fill-opacity:1;fill-rule:nonzero;stroke:none" id="path266" />
         <path
            d="m 11183.3,9634.3 c 0.8,0.1 1.5,0.5 2.3,0.9 52.5,35.2 109.8,96.7 112.2,99.3 2.3,2.5 2.2,6.4 -0.3,8.7 -2.6,2.4 -6.5,2.2 -8.8,-0.3 -0.6,-0.6 -58.7,-63 -110,-97.4 -2.9,-1.9 -3.6,-5.7 -1.7,-8.6 1.4,-2.1 3.9,-3.1 6.3,-2.6"
            style="fill:#af5945;fill-opacity:1;fill-rule:nonzero;stroke:none" id="path268" />
         <path
            d="m 11116.2,9518.8 c 1.8,0.3 3.5,1.5 4.4,3.4 1.4,3.1 0.1,6.8 -3,8.2 -26.3,12.5 -60.5,14.5 -78.8,14.5 26.2,38.9 35,89.6 35.3,92 0.6,3.3 -1.7,6.5 -5,7.1 -3.4,0.6 -6.6,-1.7 -7.2,-5.1 -0.1,-0.6 -10.2,-59.6 -40.4,-96.5 -1.5,-1.9 -1.8,-4.6 -0.7,-6.8 1.1,-2.2 3.5,-3.5 5.9,-3.3 0.5,0 51.6,3.1 85.6,-13.1 1.3,-0.6 2.6,-0.7 3.9,-0.4"
            style="fill:#af5945;fill-opacity:1;fill-rule:nonzero;stroke:none" id="path270" />
         <path
            d="m 9638.44,7973.3 c 0.5,0.1 0.99,0.2 1.46,0.5 3.09,1.5 4.39,5.1 2.92,8.2 -0.64,1.4 -65.26,135.2 -178.68,259.9 -2.3,2.5 -6.22,2.7 -8.74,0.4 -2.53,-2.3 -2.71,-6.2 -0.42,-8.8 112.21,-123.3 176.04,-255.5 176.68,-256.8 1.24,-2.6 4.07,-4 6.78,-3.4"
            style="fill:#997243;fill-opacity:1;fill-rule:nonzero;stroke:none" id="path272" />
         <path
            d="m 11084.2,9108.6 c 2.7,0.6 4.8,2.9 4.9,5.8 0.2,3.4 -2.4,6.3 -5.8,6.5 -2.9,0.1 -295.8,18.7 -447.9,221.2 -2,2.8 -5.9,3.3 -8.6,1.3 -2.8,-2.1 -3.3,-6 -1.3,-8.7 155.6,-207.2 454.1,-226 457.1,-226.2 0.5,0 1.1,0 1.6,0.1"
            style="fill:#997243;fill-opacity:1;fill-rule:nonzero;stroke:none" id="path274" />
         <path
            d="m 9089.97,6307.1 -369.72,-1786.8 -8.4,-40.6 c -1.56,-7.5 -4.01,-15.5 -6.7,-22.5 L 8053.7,2799.7 c -47.08,-119.8 -182.33,-178.7 -302.1,-131.6 -119.77,47 -178.73,182.2 -131.66,302 l 650.88,1657.7 -39.08,1761.4 c -3.14,239.5 185.54,347.6 425.01,350.7 239.46,3.2 439.03,-99.8 442.17,-339.3 0.41,-31.2 -3.05,-64 -8.95,-93.5"
            style="fill:#f69d85;fill-opacity:1;fill-rule:nonzero;stroke:none" id="path276" />
         <path
            d="m 9630.26,6352.3 70.67,-1823.3 1.6,-41.4 c 0.3,-7.7 -0.16,-16 -1.09,-23.5 L 9467.56,2698.6 c -16.9,-127.6 -134.02,-217.3 -261.59,-200.4 -127.58,16.9 -217.3,134 -200.41,261.5 l 233.27,1765.6 -461.38,1700.4 c -60.62,231.7 78.05,468.6 309.74,529.3 231.68,60.6 468.65,-78.1 529.27,-309.8 7.92,-30.2 12.44,-62.9 13.8,-92.9"
            style="fill:#f69d85;fill-opacity:1;fill-rule:nonzero;stroke:none" id="path278" />
         <path
            d="m 9892.46,2134.8 -561.88,6.9 -117.84,252.5 -50.93,-250.3 -162.28,2 c -147.94,310.3 10.86,697.7 10.86,697.7 0,0 234.9,-47.9 517.19,-8.7 l -6.62,-251.8 419.04,-305.3 c 62.3,-45.4 29.51,-143.9 -47.54,-143"
            style="fill:#404d7f;fill-opacity:1;fill-rule:nonzero;stroke:none" id="path280" />
         <path
            d="m 9081.2,2570.4 c -4.66,0 -9.33,-0.9 -13.76,-2.7 -8.77,-3.6 -15.6,-10.4 -19.25,-19.1 -3.65,-8.8 -3.67,-18.4 -0.06,-27.2 3.61,-8.8 10.41,-15.6 19.16,-19.2 8.75,-3.7 18.4,-3.7 27.16,-0.1 18.09,7.4 26.75,28.2 19.3,46.3 -3.61,8.8 -10.41,15.6 -19.16,19.3 -4.32,1.8 -8.85,2.7 -13.39,2.7 z m -0.6,-83.3 c -6.12,0 -12.24,1.2 -18.05,3.7 -11.8,4.9 -20.97,14.1 -25.83,25.9 -4.87,11.8 -4.84,24.8 0.07,36.6 4.92,11.8 14.13,21 25.95,25.8 11.81,4.9 24.81,4.9 36.6,0 11.79,-5 20.97,-14.2 25.83,-26 v 0 c 10.04,-24.4 -1.64,-52.4 -26.02,-62.4 -5.98,-2.5 -12.27,-3.7 -18.55,-3.6"
            style="fill:#606a97;fill-opacity:1;fill-rule:nonzero;stroke:none" id="path282" />
         <path
            d="m 9991.45,4822.5 c -131.93,1268.1 -492.1,2014.8 -492.1,2014.8 0,0 -121.31,-20.8 -293.07,-35.6 -42.52,-3.6 -496.69,-38.5 -848.92,80.8 0,0 -343.34,-295.4 -348.22,-972.6 -3.25,-451 31.33,-1260.4 31.33,-1260.4 L 7485.18,3280 c 1080.53,-510.8 2298.71,-289.4 2298.71,-289.4 0,0 266.61,1264.7 207.56,1831.9"
            style="fill:#ff593a;fill-opacity:1;fill-rule:nonzero;stroke:none" id="path284" />
         <path
            d="m 8330.6,2150.3 -543.74,141.8 -53.7,273.3 -109.61,-230.7 -157.04,41 c -68.99,336.8 178.29,674.7 178.29,674.7 0,0 216.49,-103 499.91,-132.9 l -66.95,-242.8 333.36,-397.1 c 49.54,-59 -5.97,-146.8 -80.52,-127.3"
            style="fill:#404d7f;fill-opacity:1;fill-rule:nonzero;stroke:none" id="path286" />
         <path
            d="m 7647.84,2768.1 c -4.51,1.2 -9.26,1.4 -14,0.7 -9.38,-1.4 -17.65,-6.3 -23.29,-13.9 -5.64,-7.7 -7.98,-17 -6.59,-26.4 1.4,-9.4 6.36,-17.6 13.98,-23.3 7.61,-5.6 16.97,-8 26.34,-6.6 19.35,2.9 32.75,21 29.88,40.4 -1.4,9.3 -6.36,17.6 -13.98,23.2 -3.76,2.8 -7.94,4.8 -12.34,5.9 z m -20.61,-80.7 c -5.94,1.5 -11.58,4.2 -16.64,7.9 -10.27,7.6 -16.96,18.8 -18.84,31.4 -1.88,12.6 1.27,25.2 8.88,35.5 7.61,10.3 18.75,17 31.39,18.8 12.63,1.9 25.25,-1.2 35.51,-8.8 10.27,-7.6 16.95,-18.8 18.84,-31.4 v 0 c 3.88,-26.1 -14.19,-50.5 -40.27,-54.4 -6.39,-0.9 -12.79,-0.6 -18.87,1"
            style="fill:#606a97;fill-opacity:1;fill-rule:nonzero;stroke:none" id="path288" />
         <path
            d="m 8977.51,7806 453.66,-4.4 v 0 c 0.34,35.5 -28.17,64.6 -63.69,64.9 l -325.03,3.2 c -35.52,0.3 -64.6,-28.2 -64.94,-63.7 v 0"
            style="fill:#3e8edd;fill-opacity:1;fill-rule:nonzero;stroke:none" id="path290" />
         <path
            d="m 8812.36,6562.5 738.55,-7.2 c 64.26,-0.6 116.86,51 117.49,115.2 l 9.89,1014.9 c 0.62,64.2 -50.96,116.8 -115.22,117.5 l -738.55,7.2 c -64.26,0.6 -116.86,-51 -117.49,-115.2 L 8697.14,6680 c -0.63,-64.3 50.96,-116.9 115.22,-117.5"
            style="fill:#606a97;fill-opacity:1;fill-rule:nonzero;stroke:none" id="path292" />
         <path
            d="m 7797.58,7186.8 346.75,933.1 c 44.92,120.9 179.34,182.5 300.24,137.6 120.89,-44.9 182.47,-179.4 137.55,-300.2 l -243.78,-656.1 907.06,-158.7 c 72.95,-12.7 127.18,-77.6 124.44,-153.7 -3.01,-83 -72.77,-147.9 -155.82,-144.9 l -1216.52,44 c -22.76,0.9 -46.74,5.3 -69.25,13.7 -114.84,42.7 -173.35,170.4 -130.67,285.2"
            style="fill:#f69d85;fill-opacity:1;fill-rule:nonzero;stroke:none" id="path294" />
         <path
            d="m 9052.66,7090.7 c 0,0 153.67,70.7 288.66,34.8 134.98,-35.9 179.91,-80.6 203.57,-135 23.65,-54.4 -218.34,-128.1 -309.51,-110 -91.16,18.1 -188.38,75.9 -182.72,210.2"
            style="fill:#f69d85;fill-opacity:1;fill-rule:nonzero;stroke:none" id="path296" />
         <path
            d="m 9139.79,7019.4 c 70.35,50.6 151.63,87.5 236.05,107.2 11.02,2 28.64,5.8 39.74,6.8 26.14,0.1 58.94,11.3 54.51,43.4 -7.12,47.2 -71.69,29.9 -105.29,31.8 -104.75,-8.1 -208.48,-37.6 -300.95,-87.6 -80.67,-48.4 6.58,-165.4 75.94,-101.6"
            style="fill:#f69d85;fill-opacity:1;fill-rule:nonzero;stroke:none" id="path298" />
         <path
            d="m 9331.66,7000.8 c 119.69,1.7 239.73,25.8 349.48,73.7 36.9,14.9 17.48,73.2 -20.72,63.3 -29.83,-7.2 -59.9,-12.9 -90.38,-16.4 -75.27,-7.9 -152.23,-7.5 -226.89,4.9 -97.59,24.7 -112.23,-130.7 -11.49,-125.5"
            style="fill:#f69d85;fill-opacity:1;fill-rule:nonzero;stroke:none" id="path300" />
         <path
            d="m 9359.44,6926.4 c 120.59,-3.1 242.44,15.2 355.49,57.5 37.68,12.8 21.37,72.2 -17.34,64.3 -33.8,-6.3 -67.96,-11 -102.33,-12.5 -73.25,-3.5 -147.57,0.9 -219.35,15.6 -95.52,27.3 -115.99,-125.3 -16.47,-124.9"
            style="fill:#f69d85;fill-opacity:1;fill-rule:nonzero;stroke:none" id="path302" />
         <path
            d="m 9326.07,6889.2 c 122.58,-28.5 253.44,-31.6 375.12,2.8 40.25,9.8 26.49,72.6 -13.97,65.2 -7.31,-0.7 -23.79,-2.1 -30.72,-2.7 -98.49,-4.1 -198.33,15.9 -289.11,53.8 -88.81,47.6 -140.46,-99.8 -41.32,-119.1"
            style="fill:#f69d85;fill-opacity:1;fill-rule:nonzero;stroke:none" id="path304" />
         <path
            d="m 9205.1,6859.9 c 103.47,-48.3 218.92,-73.8 333.11,-69.9 36.06,1 77.05,7.4 112.1,15.7 39.6,7.4 30.9,69.4 -9.02,65.8 -0.57,-0.1 -26.26,-1.7 -27.66,-1.8 -97.94,-5.4 -196.13,21.7 -283.73,64.2 -20.78,10.5 -41.91,21.5 -60.98,34.6 -76.93,61 -154.25,-69.9 -63.82,-108.6"
            style="fill:#f69d85;fill-opacity:1;fill-rule:nonzero;stroke:none" id="path306" />
         <path
            d="m 9568.45,6861.5 c 3.2,0.6 5.38,3.7 4.91,6.9 -0.49,3.4 -3.62,5.8 -7.01,5.3 -0.83,-0.2 -84.44,-11.9 -165.75,4.1 -3.34,0.7 -6.6,-1.5 -7.26,-4.9 -0.66,-3.3 1.52,-6.6 4.88,-7.2 83.43,-16.5 169.05,-4.4 169.9,-4.3 0.12,0 0.23,0.1 0.33,0.1"
            style="fill:#af5945;fill-opacity:1;fill-rule:nonzero;stroke:none" id="path308" />
         <path
            d="m 9617.18,6952.9 c 0.16,0 0.25,0 0.27,0 3.35,0.7 5.5,4 4.82,7.4 -0.69,3.3 -3.94,5.4 -7.28,4.8 -0.03,0 -0.07,0 -0.28,-0.1 -5,-1 -82.68,-16.1 -179.51,-14.5 -3.4,0 -6.23,-2.7 -6.29,-6.1 -0.06,-3.4 2.67,-6.2 6.09,-6.3 98.06,-1.6 176.86,13.7 182.18,14.8"
            style="fill:#af5945;fill-opacity:1;fill-rule:nonzero;stroke:none" id="path310" />
         <path
            d="m 9540,7027.9 c 13.45,2.7 22.2,4.7 23.28,4.9 3.33,0.8 5.39,4.2 4.61,7.5 -0.78,3.3 -4.29,5.4 -7.44,4.6 -0.85,-0.2 -83.9,-19.6 -145.67,-19.5 -3.4,-0.1 -6.19,-2.8 -6.19,-6.2 0,-3.4 2.76,-6.2 6.18,-6.2 43.45,-0.1 95.68,9 125.23,14.9"
            style="fill:#af5945;fill-opacity:1;fill-rule:nonzero;stroke:none" id="path312" />
         <path
            d="m 8717.11,8565.8 c 0,0 -469.84,8.6 -706.98,-494.5 C 7773,7568.2 7679.21,7147 7764.36,6951.9 c 107.61,-246.4 1207.01,-225.1 1207.01,-225.1 0,0 125.48,185.9 59.1,504.6 0,0 -359.36,77.6 -602.16,96.7 0,0 336.53,858.1 288.8,1237.7"
            style="fill:#ffb12a;fill-opacity:1;fill-rule:nonzero;stroke:none" id="path314" />
         <path
            d="m 8704.33,7286.7 c 2.52,0.5 4.56,2.6 4.92,5.3 0.45,3.4 -1.93,6.5 -5.32,6.9 -87.47,11.7 -231.25,29.9 -266.75,34.3 82.43,197.8 199.61,665.2 200.8,669.9 0.82,3.4 -1.19,6.7 -4.51,7.5 -3.31,0.9 -6.67,-1.1 -7.5,-4.5 -1.2,-4.8 -121.17,-483.4 -203.35,-675.5 -0.76,-1.8 -0.64,-3.9 0.32,-5.5 0.97,-1.7 2.67,-2.9 4.59,-3.1 1.74,-0.2 174.95,-22.1 274.77,-35.3 0.69,-0.1 1.38,-0.1 2.03,0"
            style="fill:#997243;fill-opacity:1;fill-rule:nonzero;stroke:none" id="path316" />
         <path
            d="m 8845.11,6720.6 c 1.77,0.3 3.37,1.4 4.27,3.1 114.45,217.2 60.87,531.2 60.31,534.4 -0.58,3.4 -3.79,5.6 -7.16,5 -3.3,-0.7 -5.61,-3.8 -5.01,-7.2 0.54,-3.1 53.37,-313.1 -59.08,-526.4 -1.59,-3 -0.44,-6.7 2.59,-8.3 1.3,-0.7 2.74,-0.9 4.08,-0.6"
            style="fill:#997243;fill-opacity:1;fill-rule:nonzero;stroke:none" id="path318" />
         <path
            d="m 9015.72,8137.3 c 33.91,6.8 62.43,25.3 84.88,55 91.28,120.8 55.23,387.2 53.65,398.4 -0.47,3.4 -3.6,5.8 -6.98,5.3 -3.32,-0.5 -5.74,-3.6 -5.27,-7 0.38,-2.7 36.91,-272.6 -51.28,-389.3 -22.27,-29.5 -50.98,-46.8 -85.29,-51.6 -193.23,-26.8 -336.56,411.5 -337.98,416 -1.05,3.2 -4.48,5 -7.79,3.9 -3.25,-1 -5.04,-4.5 -3.99,-7.7 5.94,-18.5 148,-452.6 351.45,-424.4 2.91,0.4 5.77,0.9 8.6,1.4"
            style="fill:#997243;fill-opacity:1;fill-rule:nonzero;stroke:none" id="path320" />
         <path
            d="m 8955.37,8987.1 c -4.41,-6.8 -6.63,-14.3 -6.59,-22.3 0.1,-12.1 5.7,-23.5 15.79,-32.1 10.36,-8.8 24.14,-13.6 38.79,-13.5 29.85,0.2 54.03,21.1 53.84,46.4 -0.04,5.6 -1.23,11 -3.55,16.1 -8.03,17.9 -28.53,29.8 -51.03,29.6 -4.04,0 -8.01,-0.4 -11.85,-1.2 -14.86,-3 -27.84,-11.2 -35.4,-23 z m 48.08,-80.3 c -17.62,-0.1 -34.28,5.7 -46.9,16.5 -12.88,10.9 -20.03,25.6 -20.14,41.4 v 0 c -0.05,10.3 2.91,20.4 8.57,29.1 11.74,18.3 33.78,29.7 57.55,29.9 27.74,0.2 52.24,-14.3 62.39,-36.9 3.04,-6.7 4.61,-13.8 4.66,-21.1 0.2,-27.9 -22.07,-51.5 -51.93,-57.5 -4.57,-0.9 -9.32,-1.4 -14.2,-1.4"
            style="fill:#af5945;fill-opacity:1;fill-rule:nonzero;stroke:none" id="path322" />
         <path
            d="m 9191.65,3077.5 c -384.56,0 -724.4,56.5 -974.54,115.6 -410.46,97 -674.65,221.6 -677.27,222.9 -3.73,1.8 -5.31,6.2 -3.54,9.9 1.77,3.8 6.24,5.3 9.96,3.6 2.61,-1.3 265.66,-125.3 674.69,-221.9 377.36,-89.1 959.69,-172.4 1590.93,-63.2 4.11,0.7 7.93,-2 8.64,-6 0.7,-4.1 -2.03,-8 -6.09,-8.7 -215.31,-37.3 -424.98,-52.2 -622.78,-52.2"
            style="fill:#9b453a;fill-opacity:1;fill-rule:nonzero;stroke:none" id="path324" />
         <path
            d="m 28350.1,8011.8 c -226.7,-890.4 -1132.4,-1428.4 -2022.9,-1201.6 -890.4,226.7 -1428.4,1132.4 -1201.6,2022.9 226.7,890.4 1132.4,1428.4 2022.9,1201.7 890.4,-226.8 1428.4,-1132.5 1201.6,-2023"
            style="fill:#ffb12a;fill-opacity:1;fill-rule:nonzero;stroke:none" id="path326" />
         <path
            d="m 27188.4,9713.7 c -36.9,12.8 -74.6,24.1 -113.1,33.9 -730.7,186.1 -1476.5,-256.9 -1662.6,-987.6 -176.3,-692.3 212,-1398.1 874.7,-1628.7 36.8,-12.9 74.5,-24.2 113,-34 730.7,-186.1 1476.5,257 1662.6,987.7 176.3,692.2 -212,1398 -874.6,1628.7 z m -922.2,-2642.9 c -693.7,241.4 -1100.2,980.3 -915.6,1705 194.8,764.9 975.6,1228.7 1740.6,1033.9 764.9,-194.9 1228.7,-975.6 1033.9,-1740.6 -194.8,-764.9 -975.6,-1228.7 -1740.6,-1033.9 -40.2,10.2 -79.7,22.1 -118.3,35.6"
            style="fill:#face6c;fill-opacity:1;fill-rule:nonzero;stroke:none" id="path328" />
         <path
            d="m 27233.5,7915.2 c 62.8,246.4 -39.3,442.8 -318.4,636.7 -204.3,142.9 -288.3,216.4 -260.1,327.1 22.7,89.1 124.8,147.7 296.3,104 81.6,-20.8 150,-50.6 205.9,-81.5 80.3,-44.4 181.3,-15.7 226.8,64.1 v 0 c 46.4,81.3 17.9,185.9 -64.6,230.3 -56.7,30.5 -123.2,59.2 -201.2,83.8 l 0.6,2.3 c 22.9,89.8 -31.4,181.2 -121.2,204.1 v 0 c -89.8,22.8 -181.2,-31.4 -204.1,-121.2 l -7.8,-31 c -279.9,-4.9 -480,-154.7 -539.1,-386.6 -64.8,-254.5 84.8,-461.3 349.2,-638.4 189.9,-126.6 257,-210.9 229.7,-317.9 -29.2,-114.6 -144.2,-165.3 -325.2,-119.2 -95.7,24.3 -185.5,65.6 -261.8,111.8 -84.1,51 -193.6,21.3 -239.9,-65.5 v 0 c -43.2,-81.2 -14.2,-181.7 65.1,-228.3 76.7,-45.1 171.7,-88.7 272.7,-120 l -0.4,-1.6 c -22.9,-89.8 31.4,-181.2 121.2,-204 v 0 c 89.8,-22.9 181.2,31.4 204,121.2 l 8,31.1 c 314.5,0.2 505.8,168.8 564.3,398.7"
            style="fill:#face6c;fill-opacity:1;fill-rule:nonzero;stroke:none" id="path330" />
         <path
            d="m 24194,6829.3 c 65.5,-542.4 -321.1,-1035.3 -863.5,-1100.8 -542.5,-65.5 -1035.3,321.1 -1100.9,863.5 -65.5,542.4 321.1,1035.3 863.5,1100.8 542.5,65.6 1035.3,-321 1100.9,-863.5"
            style="fill:#ffb12a;fill-opacity:1;fill-rule:nonzero;stroke:none" id="path332" />
         <path
            d="m 23184.2,7523.4 c -23.2,-0.8 -46.5,-2.6 -69.9,-5.5 -445.2,-53.7 -763.5,-459.6 -709.8,-904.8 51,-421.6 417.9,-729.6 834.9,-715.1 23.2,0.8 46.5,2.6 69.9,5.4 445.2,53.8 763.5,459.7 709.8,904.8 -51,421.7 -417.9,729.6 -834.9,715.2 z m 56.5,-1663.5 c -436.5,-15.1 -820.7,307.2 -874,748.7 -56.3,465.9 277,890.9 743,947.2 466,56.2 890.9,-277.1 947.2,-743 56.3,-466 -277,-890.9 -743,-947.2 -24.5,-3 -49,-4.9 -73.2,-5.7"
            style="fill:#face6c;fill-opacity:1;fill-rule:nonzero;stroke:none" id="path334" />
         <path
            d="m 23595.6,6535.9 c -18.1,150.1 -116.9,237.1 -313.3,284.6 -144,35.4 -206.4,58.1 -214.5,125.5 -6.6,54.3 37.4,108.7 142,121.3 49.6,6 94,4.2 131.6,-0.9 54.1,-7.4 103.9,30.2 112,84.2 v 0 c 8.3,55.1 -30,106.9 -85.3,113.8 -38,4.8 -81,6.4 -129.5,3.3 l -0.2,1.4 c -6.6,54.7 -56.3,93.7 -111.1,87.1 v 0 c -54.7,-6.6 -93.7,-56.3 -87.1,-111 l 2.3,-18.9 c -154.1,-62.8 -232.9,-188.9 -215.8,-330.2 18.7,-155 146.1,-237.5 330.8,-278.9 132.4,-29.4 187.7,-61.7 195.6,-126.9 8.4,-69.9 -44.5,-122.7 -154.7,-136 -58.3,-7 -117,-3.5 -169.2,5.8 -57.6,10.2 -111.9,-29.8 -118.9,-87.9 v 0 c -6.6,-54.3 31.1,-103.8 85.1,-112.6 52.2,-8.5 114.3,-12.3 177,-7.9 l 0.1,-1 c 6.6,-54.7 56.3,-93.7 111,-87.1 v 0 c 54.7,6.6 93.7,56.3 87.1,111 l -2.3,19 c 174.4,67.7 244.2,202.2 227.3,342.3"
            style="fill:#face6c;fill-opacity:1;fill-rule:nonzero;stroke:none" id="path336" />
         <path
            d="m 26414.7,3030.7 h -3968.4 c -119.4,0 -216.2,96.8 -216.2,216.1 v 15.6 c 0,119.4 96.8,216.2 216.2,216.2 h 3968.4 c 119.4,0 216.1,-96.8 216.1,-216.2 v -15.6 c 0,-119.3 -96.7,-216.1 -216.1,-216.1"
            style="fill:#ffb12a;fill-opacity:1;fill-rule:nonzero;stroke:none" id="path338" />
         <path d="m 22610.8,3030.7 h -51.4 v 447.9 h 51.4 v -447.9"
            style="fill:#face6c;fill-opacity:1;fill-rule:nonzero;stroke:none" id="path340" />
         <path d="m 22918.4,3030.7 h -51.4 v 447.9 h 51.4 v -447.9"
            style="fill:#face6c;fill-opacity:1;fill-rule:nonzero;stroke:none" id="path342" />
         <path d="m 23226,3030.7 h -51.5 v 447.9 h 51.5 v -447.9"
            style="fill:#face6c;fill-opacity:1;fill-rule:nonzero;stroke:none" id="path344" />
         <path d="m 23533.5,3030.7 h -51.4 v 447.9 h 51.4 v -447.9"
            style="fill:#face6c;fill-opacity:1;fill-rule:nonzero;stroke:none" id="path346" />
         <path d="m 23841.1,3030.7 h -51.4 v 447.9 h 51.4 v -447.9"
            style="fill:#face6c;fill-opacity:1;fill-rule:nonzero;stroke:none" id="path348" />
         <path d="m 24148.6,3030.7 h -51.4 v 447.9 h 51.4 v -447.9"
            style="fill:#face6c;fill-opacity:1;fill-rule:nonzero;stroke:none" id="path350" />
         <path d="m 24456.2,3030.7 h -51.4 v 447.9 h 51.4 v -447.9"
            style="fill:#face6c;fill-opacity:1;fill-rule:nonzero;stroke:none" id="path352" />
         <path d="m 24763.8,3030.7 h -51.5 v 447.9 h 51.5 v -447.9"
            style="fill:#face6c;fill-opacity:1;fill-rule:nonzero;stroke:none" id="path354" />
         <path d="m 25071.3,3030.7 h -51.4 v 447.9 h 51.4 v -447.9"
            style="fill:#face6c;fill-opacity:1;fill-rule:nonzero;stroke:none" id="path356" />
         <path d="m 25378.9,3030.7 h -51.4 v 447.9 h 51.4 v -447.9"
            style="fill:#face6c;fill-opacity:1;fill-rule:nonzero;stroke:none" id="path358" />
         <path d="m 25686.4,3030.7 h -51.4 v 447.9 h 51.4 v -447.9"
            style="fill:#face6c;fill-opacity:1;fill-rule:nonzero;stroke:none" id="path360" />
         <path d="m 25994,3030.7 h -51.4 v 447.9 h 51.4 v -447.9"
            style="fill:#face6c;fill-opacity:1;fill-rule:nonzero;stroke:none" id="path362" />
         <path d="m 26301.6,3030.7 h -51.5 v 447.9 h 51.5 v -447.9"
            style="fill:#face6c;fill-opacity:1;fill-rule:nonzero;stroke:none" id="path364" />
         <path
            d="m 26262.9,3478.6 h -3968.3 c -119.4,0 -216.2,96.8 -216.2,216.2 v 15.6 c 0,119.3 96.8,216.1 216.2,216.1 h 3968.3 c 119.4,0 216.2,-96.8 216.2,-216.1 v -15.6 c 0,-119.4 -96.8,-216.2 -216.2,-216.2"
            style="fill:#ffb12a;fill-opacity:1;fill-rule:nonzero;stroke:none" id="path366" />
         <path d="m 22459.1,3478.6 h -51.4 v 447.9 h 51.4 v -447.9"
            style="fill:#face6c;fill-opacity:1;fill-rule:nonzero;stroke:none" id="path368" />
         <path d="m 22766.6,3478.6 h -51.4 v 447.9 h 51.4 v -447.9"
            style="fill:#face6c;fill-opacity:1;fill-rule:nonzero;stroke:none" id="path370" />
         <path d="m 23074.2,3478.6 h -51.4 v 447.9 h 51.4 v -447.9"
            style="fill:#face6c;fill-opacity:1;fill-rule:nonzero;stroke:none" id="path372" />
         <path d="m 23381.8,3478.6 h -51.5 v 447.9 h 51.5 v -447.9"
            style="fill:#face6c;fill-opacity:1;fill-rule:nonzero;stroke:none" id="path374" />
         <path d="m 23689.3,3478.6 h -51.4 v 447.9 h 51.4 v -447.9"
            style="fill:#face6c;fill-opacity:1;fill-rule:nonzero;stroke:none" id="path376" />
         <path d="m 23996.9,3478.6 h -51.4 v 447.9 h 51.4 v -447.9"
            style="fill:#face6c;fill-opacity:1;fill-rule:nonzero;stroke:none" id="path378" />
         <path d="m 24304.5,3478.6 h -51.5 v 447.9 h 51.5 v -447.9"
            style="fill:#face6c;fill-opacity:1;fill-rule:nonzero;stroke:none" id="path380" />
         <path d="m 24612,3478.6 h -51.4 v 447.9 h 51.4 v -447.9"
            style="fill:#face6c;fill-opacity:1;fill-rule:nonzero;stroke:none" id="path382" />
         <path d="m 24919.6,3478.6 h -51.4 v 447.9 h 51.4 v -447.9"
            style="fill:#face6c;fill-opacity:1;fill-rule:nonzero;stroke:none" id="path384" />
         <path d="m 25227.1,3478.6 h -51.4 v 447.9 h 51.4 v -447.9"
            style="fill:#face6c;fill-opacity:1;fill-rule:nonzero;stroke:none" id="path386" />
         <path d="m 25534.7,3478.6 h -51.4 v 447.9 h 51.4 v -447.9"
            style="fill:#face6c;fill-opacity:1;fill-rule:nonzero;stroke:none" id="path388" />
         <path d="m 25842.3,3478.6 h -51.5 v 447.9 h 51.5 v -447.9"
            style="fill:#face6c;fill-opacity:1;fill-rule:nonzero;stroke:none" id="path390" />
         <path d="m 26149.8,3478.6 h -51.4 v 447.9 h 51.4 v -447.9"
            style="fill:#face6c;fill-opacity:1;fill-rule:nonzero;stroke:none" id="path392" />
         <path
            d="m 26414.7,2134.8 h -3968.4 c -119.4,0 -216.2,96.8 -216.2,216.2 v 15.6 c 0,119.4 96.8,216.1 216.2,216.1 h 3968.4 c 119.4,0 216.1,-96.7 216.1,-216.1 V 2351 c 0,-119.4 -96.7,-216.2 -216.1,-216.2"
            style="fill:#ffb12a;fill-opacity:1;fill-rule:nonzero;stroke:none" id="path394" />
         <path d="m 22610.8,2134.8 h -51.4 v 447.9 h 51.4 v -447.9"
            style="fill:#face6c;fill-opacity:1;fill-rule:nonzero;stroke:none" id="path396" />
         <path d="m 22918.4,2134.8 h -51.4 v 447.9 h 51.4 v -447.9"
            style="fill:#face6c;fill-opacity:1;fill-rule:nonzero;stroke:none" id="path398" />
         <path d="m 23226,2134.8 h -51.5 v 447.9 h 51.5 v -447.9"
            style="fill:#face6c;fill-opacity:1;fill-rule:nonzero;stroke:none" id="path400" />
         <path d="m 23533.5,2134.8 h -51.4 v 447.9 h 51.4 v -447.9"
            style="fill:#face6c;fill-opacity:1;fill-rule:nonzero;stroke:none" id="path402" />
         <path d="m 23841.1,2134.8 h -51.4 v 447.9 h 51.4 v -447.9"
            style="fill:#face6c;fill-opacity:1;fill-rule:nonzero;stroke:none" id="path404" />
         <path d="m 24148.6,2134.8 h -51.4 v 447.9 h 51.4 v -447.9"
            style="fill:#face6c;fill-opacity:1;fill-rule:nonzero;stroke:none" id="path406" />
         <path d="m 24456.2,2134.8 h -51.4 v 447.9 h 51.4 v -447.9"
            style="fill:#face6c;fill-opacity:1;fill-rule:nonzero;stroke:none" id="path408" />
         <path d="m 24763.8,2134.8 h -51.5 v 447.9 h 51.5 v -447.9"
            style="fill:#face6c;fill-opacity:1;fill-rule:nonzero;stroke:none" id="path410" />
         <path d="m 25071.3,2134.8 h -51.4 v 447.9 h 51.4 v -447.9"
            style="fill:#face6c;fill-opacity:1;fill-rule:nonzero;stroke:none" id="path412" />
         <path d="m 25378.9,2134.8 h -51.4 v 447.9 h 51.4 v -447.9"
            style="fill:#face6c;fill-opacity:1;fill-rule:nonzero;stroke:none" id="path414" />
         <path d="m 25686.4,2134.8 h -51.4 v 447.9 h 51.4 v -447.9"
            style="fill:#face6c;fill-opacity:1;fill-rule:nonzero;stroke:none" id="path416" />
         <path d="m 25994,2134.8 h -51.4 v 447.9 h 51.4 v -447.9"
            style="fill:#face6c;fill-opacity:1;fill-rule:nonzero;stroke:none" id="path418" />
         <path d="m 26301.6,2134.8 h -51.5 v 447.9 h 51.5 v -447.9"
            style="fill:#face6c;fill-opacity:1;fill-rule:nonzero;stroke:none" id="path420" />
         <path
            d="M 25955.4,2582.7 H 21987 c -119.4,0 -216.2,96.8 -216.2,216.2 v 15.6 c 0,119.4 96.8,216.2 216.2,216.2 h 3968.4 c 119.3,0 216.1,-96.8 216.1,-216.2 v -15.6 c 0,-119.4 -96.8,-216.2 -216.1,-216.2"
            style="fill:#ffb12a;fill-opacity:1;fill-rule:nonzero;stroke:none" id="path422" />
         <path d="m 22151.5,2582.7 h -51.4 v 448 h 51.4 v -448"
            style="fill:#face6c;fill-opacity:1;fill-rule:nonzero;stroke:none" id="path424" />
         <path d="m 22459.1,2582.7 h -51.4 v 448 h 51.4 v -448"
            style="fill:#face6c;fill-opacity:1;fill-rule:nonzero;stroke:none" id="path426" />
         <path d="m 22766.6,2582.7 h -51.4 v 448 h 51.4 v -448"
            style="fill:#face6c;fill-opacity:1;fill-rule:nonzero;stroke:none" id="path428" />
         <path d="m 23074.2,2582.7 h -51.4 v 448 h 51.4 v -448"
            style="fill:#face6c;fill-opacity:1;fill-rule:nonzero;stroke:none" id="path430" />
         <path d="m 23381.8,2582.7 h -51.5 v 448 h 51.5 v -448"
            style="fill:#face6c;fill-opacity:1;fill-rule:nonzero;stroke:none" id="path432" />
         <path d="m 23689.3,2582.7 h -51.4 v 448 h 51.4 v -448"
            style="fill:#face6c;fill-opacity:1;fill-rule:nonzero;stroke:none" id="path434" />
         <path d="m 23996.9,2582.7 h -51.4 v 448 h 51.4 v -448"
            style="fill:#face6c;fill-opacity:1;fill-rule:nonzero;stroke:none" id="path436" />
         <path d="m 24304.5,2582.7 h -51.5 v 448 h 51.5 v -448"
            style="fill:#face6c;fill-opacity:1;fill-rule:nonzero;stroke:none" id="path438" />
         <path d="m 24612,2582.7 h -51.4 v 448 h 51.4 v -448"
            style="fill:#face6c;fill-opacity:1;fill-rule:nonzero;stroke:none" id="path440" />
         <path d="m 24919.6,2582.7 h -51.4 v 448 h 51.4 v -448"
            style="fill:#face6c;fill-opacity:1;fill-rule:nonzero;stroke:none" id="path442" />
         <path d="m 25227.1,2582.7 h -51.4 v 448 h 51.4 v -448"
            style="fill:#face6c;fill-opacity:1;fill-rule:nonzero;stroke:none" id="path444" />
         <path d="m 25534.7,2582.7 h -51.4 v 448 h 51.4 v -448"
            style="fill:#face6c;fill-opacity:1;fill-rule:nonzero;stroke:none" id="path446" />
         <path d="m 25842.3,2582.7 h -51.5 v 448 h 51.5 v -448"
            style="fill:#face6c;fill-opacity:1;fill-rule:nonzero;stroke:none" id="path448" />
         <path
            d="m 25806.5,3926.5 h -3968.4 c -119.4,0 -216.2,96.8 -216.2,216.2 v 15.6 c 0,119.4 96.8,216.2 216.2,216.2 h 3968.4 c 119.3,0 216.1,-96.8 216.1,-216.2 v -15.6 c 0,-119.4 -96.8,-216.2 -216.1,-216.2"
            style="fill:#ffb12a;fill-opacity:1;fill-rule:nonzero;stroke:none" id="path450" />
         <path d="m 22002.6,3926.5 h -51.4 v 448 h 51.4 v -448"
            style="fill:#face6c;fill-opacity:1;fill-rule:nonzero;stroke:none" id="path452" />
         <path d="m 22310.2,3926.5 h -51.4 v 448 h 51.4 v -448"
            style="fill:#face6c;fill-opacity:1;fill-rule:nonzero;stroke:none" id="path454" />
         <path d="m 22617.8,3926.5 h -51.5 v 448 h 51.5 v -448"
            style="fill:#face6c;fill-opacity:1;fill-rule:nonzero;stroke:none" id="path456" />
         <path d="m 22925.3,3926.5 h -51.4 v 448 h 51.4 v -448"
            style="fill:#face6c;fill-opacity:1;fill-rule:nonzero;stroke:none" id="path458" />
         <path d="m 23232.9,3926.5 h -51.4 v 448 h 51.4 v -448"
            style="fill:#face6c;fill-opacity:1;fill-rule:nonzero;stroke:none" id="path460" />
         <path d="m 23540.4,3926.5 h -51.4 v 448 h 51.4 v -448"
            style="fill:#face6c;fill-opacity:1;fill-rule:nonzero;stroke:none" id="path462" />
         <path d="m 23848,3926.5 h -51.4 v 448 h 51.4 v -448"
            style="fill:#face6c;fill-opacity:1;fill-rule:nonzero;stroke:none" id="path464" />
         <path d="m 24155.6,3926.5 h -51.5 v 448 h 51.5 v -448"
            style="fill:#face6c;fill-opacity:1;fill-rule:nonzero;stroke:none" id="path466" />
         <path d="m 24463.1,3926.5 h -51.4 v 448 h 51.4 v -448"
            style="fill:#face6c;fill-opacity:1;fill-rule:nonzero;stroke:none" id="path468" />
         <path d="m 24770.7,3926.5 h -51.4 v 448 h 51.4 v -448"
            style="fill:#face6c;fill-opacity:1;fill-rule:nonzero;stroke:none" id="path470" />
         <path d="m 25078.2,3926.5 h -51.4 v 448 h 51.4 v -448"
            style="fill:#face6c;fill-opacity:1;fill-rule:nonzero;stroke:none" id="path472" />
         <path d="m 25385.8,3926.5 h -51.4 v 448 h 51.4 v -448"
            style="fill:#face6c;fill-opacity:1;fill-rule:nonzero;stroke:none" id="path474" />
         <path d="m 25693.4,3926.5 h -51.5 v 448 h 51.5 v -448"
            style="fill:#face6c;fill-opacity:1;fill-rule:nonzero;stroke:none" id="path476" />
         <path
            d="m 25999.6,4370.6 h -3968.4 c -119.4,0 -216.2,96.8 -216.2,216.2 v 15.6 c 0,119.4 96.8,216.2 216.2,216.2 h 3968.4 c 119.3,0 216.1,-96.8 216.1,-216.2 v -15.6 c 0,-119.4 -96.8,-216.2 -216.1,-216.2"
            style="fill:#ffb12a;fill-opacity:1;fill-rule:nonzero;stroke:none" id="path478" />
         <path d="m 22195.7,4370.6 h -51.4 v 448 h 51.4 v -448"
            style="fill:#face6c;fill-opacity:1;fill-rule:nonzero;stroke:none" id="path480" />
         <path d="m 22503.3,4370.6 h -51.4 v 448 h 51.4 v -448"
            style="fill:#face6c;fill-opacity:1;fill-rule:nonzero;stroke:none" id="path482" />
         <path d="m 22810.8,4370.6 h -51.4 v 448 h 51.4 v -448"
            style="fill:#face6c;fill-opacity:1;fill-rule:nonzero;stroke:none" id="path484" />
         <path d="m 23118.4,4370.6 h -51.4 v 448 h 51.4 v -448"
            style="fill:#face6c;fill-opacity:1;fill-rule:nonzero;stroke:none" id="path486" />
         <path d="m 23426,4370.6 h -51.5 v 448 h 51.5 v -448"
            style="fill:#face6c;fill-opacity:1;fill-rule:nonzero;stroke:none" id="path488" />
         <path d="m 23733.5,4370.6 h -51.4 v 448 h 51.4 v -448"
            style="fill:#face6c;fill-opacity:1;fill-rule:nonzero;stroke:none" id="path490" />
         <path d="m 24041.1,4370.6 h -51.4 v 448 h 51.4 v -448"
            style="fill:#face6c;fill-opacity:1;fill-rule:nonzero;stroke:none" id="path492" />
         <path d="m 24348.6,4370.6 h -51.4 v 448 h 51.4 v -448"
            style="fill:#face6c;fill-opacity:1;fill-rule:nonzero;stroke:none" id="path494" />
         <path d="m 24656.2,4370.6 h -51.4 v 448 h 51.4 v -448"
            style="fill:#face6c;fill-opacity:1;fill-rule:nonzero;stroke:none" id="path496" />
         <path d="m 24963.8,4370.6 h -51.4 v 448 h 51.4 v -448"
            style="fill:#face6c;fill-opacity:1;fill-rule:nonzero;stroke:none" id="path498" />
         <path d="m 25271.3,4370.6 h -51.4 v 448 h 51.4 v -448"
            style="fill:#face6c;fill-opacity:1;fill-rule:nonzero;stroke:none" id="path500" />
         <path d="m 25578.9,4370.6 h -51.4 v 448 h 51.4 v -448"
            style="fill:#face6c;fill-opacity:1;fill-rule:nonzero;stroke:none" id="path502" />
         <path d="m 25886.5,4370.6 h -51.5 v 448 h 51.5 v -448"
            style="fill:#face6c;fill-opacity:1;fill-rule:nonzero;stroke:none" id="path504" />
         <path
            d="m 13470.9,2133.7 h -2353.2 c -272.5,0 -493.4,220.9 -493.4,493.3 v 2580.5 c 0,272.5 220.9,493.4 493.4,493.4 h 2353.2 c 272.4,0 493.3,-220.9 493.3,-493.4 V 2627 c 0,-272.4 -220.9,-493.3 -493.3,-493.3"
            style="fill:#606a97;fill-opacity:1;fill-rule:nonzero;stroke:none" id="path506" />
         <path
            d="m 13242.1,4637.6 h -1895.6 c -235.2,0 -425.9,190.6 -425.9,425.8 v 0 c 0,235.2 190.7,425.8 425.9,425.8 h 1895.6 c 235.1,0 425.8,-190.6 425.8,-425.8 v 0 c 0,-235.2 -190.7,-425.8 -425.8,-425.8"
            style="fill:#a2c3f2;fill-opacity:1;fill-rule:nonzero;stroke:none" id="path508" />
         <path
            d="m 11274.2,3844.4 v 0 c -148.5,0 -268.9,120.4 -268.9,269 v 0 c 0,148.5 120.4,268.9 268.9,268.9 v 0 c 148.6,0 269,-120.4 269,-268.9 v 0 c 0,-148.6 -120.4,-269 -269,-269"
            style="fill:#404660;fill-opacity:1;fill-rule:nonzero;stroke:none" id="path510" />
         <path
            d="m 11982.5,3844.4 v 0 c -148.6,0 -269,120.4 -269,269 v 0 c 0,148.5 120.4,268.9 269,268.9 v 0 c 148.5,0 268.9,-120.4 268.9,-268.9 v 0 c 0,-148.6 -120.4,-269 -268.9,-269"
            style="fill:#404660;fill-opacity:1;fill-rule:nonzero;stroke:none" id="path512" />
         <path
            d="m 12690.7,3844.4 v 0 c -148.5,0 -268.9,120.4 -268.9,269 v 0 c 0,148.5 120.4,268.9 268.9,268.9 v 0 c 148.5,0 268.9,-120.4 268.9,-268.9 v 0 c 0,-148.6 -120.4,-269 -268.9,-269"
            style="fill:#404660;fill-opacity:1;fill-rule:nonzero;stroke:none" id="path514" />
         <path
            d="m 11274.2,3094.9 v 0 c -148.5,0 -268.9,120.4 -268.9,268.9 v 0 c 0,148.6 120.4,269 268.9,269 v 0 c 148.6,0 269,-120.4 269,-269 v 0 c 0,-148.5 -120.4,-268.9 -269,-268.9"
            style="fill:#404660;fill-opacity:1;fill-rule:nonzero;stroke:none" id="path516" />
         <path
            d="m 11982.5,3094.9 v 0 c -148.6,0 -269,120.4 -269,268.9 v 0 c 0,148.6 120.4,269 269,269 v 0 c 148.5,0 268.9,-120.4 268.9,-269 v 0 c 0,-148.5 -120.4,-268.9 -268.9,-268.9"
            style="fill:#404660;fill-opacity:1;fill-rule:nonzero;stroke:none" id="path518" />
         <path
            d="m 13398.9,3094.9 v 0 c -148.5,0 -268.9,120.4 -268.9,268.9 v 749.6 c 0,148.5 120.4,268.9 268.9,268.9 v 0 c 148.6,0 269,-120.4 269,-268.9 v -749.6 c 0,-148.5 -120.4,-268.9 -269,-268.9"
            style="fill:#404660;fill-opacity:1;fill-rule:nonzero;stroke:none" id="path520" />
         <path
            d="m 12690.7,3094.9 v 0 c -148.5,0 -268.9,120.4 -268.9,268.9 v 0 c 0,148.6 120.4,269 268.9,269 v 0 c 148.5,0 268.9,-120.4 268.9,-269 v 0 c 0,-148.5 -120.4,-268.9 -268.9,-268.9"
            style="fill:#404660;fill-opacity:1;fill-rule:nonzero;stroke:none" id="path522" />
         <path
            d="m 11274.2,2345.4 v 0 c -148.5,0 -268.9,120.4 -268.9,268.9 v 0 c 0,148.5 120.4,268.9 268.9,268.9 v 0 c 148.6,0 269,-120.4 269,-268.9 v 0 c 0,-148.5 -120.4,-268.9 -269,-268.9"
            style="fill:#404660;fill-opacity:1;fill-rule:nonzero;stroke:none" id="path524" />
         <path
            d="m 11982.5,2345.4 v 0 c -148.6,0 -269,120.4 -269,268.9 v 0 c 0,148.5 120.4,268.9 269,268.9 v 0 c 148.5,0 268.9,-120.4 268.9,-268.9 v 0 c 0,-148.5 -120.4,-268.9 -268.9,-268.9"
            style="fill:#404660;fill-opacity:1;fill-rule:nonzero;stroke:none" id="path526" />
         <path
            d="m 13398.9,2345.4 v 0 c -148.5,0 -268.9,120.4 -268.9,268.9 v 0 c 0,148.5 120.4,268.9 268.9,268.9 v 0 c 148.6,0 269,-120.4 269,-268.9 v 0 c 0,-148.5 -120.4,-268.9 -269,-268.9"
            style="fill:#ff593a;fill-opacity:1;fill-rule:nonzero;stroke:none" id="path528" />
         <path
            d="m 12690.7,2345.4 v 0 c -148.5,0 -268.9,120.4 -268.9,268.9 v 0 c 0,148.5 120.4,268.9 268.9,268.9 v 0 c 148.5,0 268.9,-120.4 268.9,-268.9 v 0 c 0,-148.5 -120.4,-268.9 -268.9,-268.9"
            style="fill:#404660;fill-opacity:1;fill-rule:nonzero;stroke:none" id="path530" />
         <path
            d="M 31445.9,1197.7 H 2554.09 c -19.02,0 -34.43,15.4 -34.43,34.4 0,19 15.41,34.5 34.43,34.5 H 31445.9 c 19,0 34.4,-15.5 34.4,-34.5 0,-19 -15.4,-34.4 -34.4,-34.4"
            style="fill:#30313c;fill-opacity:1;fill-rule:nonzero;stroke:none" id="path532" />
      </g>
   </g>
</svg>